<?xml version="1.0" encoding="UTF-8" standalone="no"?>
<!DOCTYPE svg PUBLIC "-//W3C//DTD SVG 1.1//EN"
 "http://www.w3.org/Graphics/SVG/1.1/DTD/svg11.dtd">
<!-- Generated by graphviz version 2.44.1 (20200629.0846)
 -->
<!-- Title: dplyr Pages: 1 -->
<svg width="714pt" height="422pt"
 viewBox="0.00 0.00 713.99 422.00" xmlns="http://www.w3.org/2000/svg" xmlns:xlink="http://www.w3.org/1999/xlink">
<g id="graph0" class="graph" transform="scale(1 1) rotate(0) translate(4 418)">
<title>dplyr</title>
<polygon fill="white" stroke="transparent" points="-4,4 -4,-418 709.99,-418 709.99,4 -4,4"/>
<!-- columns -->
<g id="node1" class="node">
<title>columns</title>
<ellipse fill="none" stroke="black" cx="215.79" cy="-309" rx="40.89" ry="18"/>
<text text-anchor="middle" x="215.79" y="-305.3" font-family="Times,serif" font-size="14.00">columns</text>
</g>
<!-- statistical variables -->
<g id="node2" class="node">
<title>statistical variables</title>
<ellipse fill="none" stroke="black" cx="215.79" cy="-222" rx="77.99" ry="18"/>
<text text-anchor="middle" x="215.79" y="-218.3" font-family="Times,serif" font-size="14.00">statistical variables</text>
</g>
<!-- columns&#45;&gt;statistical variables -->
<g id="edge1" class="edge">
<title>columns&#45;&gt;statistical variables</title>
<path fill="none" stroke="black" d="M215.79,-290.8C215.79,-279.16 215.79,-263.55 215.79,-250.24"/>
<polygon fill="black" stroke="black" points="219.29,-250.18 215.79,-240.18 212.29,-250.18 219.29,-250.18"/>
<text text-anchor="middle" x="240.79" y="-261.8" font-family="Times,serif" font-size="14.00">represent</text>
</g>
<!-- unique names -->
<g id="node3" class="node">
<title>unique names</title>
<ellipse fill="none" stroke="black" cx="59.79" cy="-222" rx="59.59" ry="18"/>
<text text-anchor="middle" x="59.79" y="-218.3" font-family="Times,serif" font-size="14.00">unique names</text>
</g>
<!-- columns&#45;&gt;unique names -->
<g id="edge2" class="edge">
<title>columns&#45;&gt;unique names</title>
<path fill="none" stroke="black" d="M191.08,-294.53C165.65,-280.68 125.75,-258.94 96.61,-243.06"/>
<polygon fill="black" stroke="black" points="98.01,-239.84 87.56,-238.13 94.66,-245.98 98.01,-239.84"/>
<text text-anchor="middle" x="176.29" y="-261.8" font-family="Times,serif" font-size="14.00">must have</text>
</g>
<!-- select -->
<g id="node4" class="node">
<title>select</title>
<ellipse fill="none" stroke="black" cx="137.79" cy="-396" rx="30.59" ry="18"/>
<text text-anchor="middle" x="137.79" y="-392.3" font-family="Times,serif" font-size="14.00">select</text>
</g>
<!-- select&#45;&gt;columns -->
<g id="edge3" class="edge">
<title>select&#45;&gt;columns</title>
<path fill="none" stroke="black" d="M147.08,-378.78C153.36,-368.53 162.23,-355.31 171.79,-345 176.24,-340.21 181.37,-335.53 186.52,-331.24"/>
<polygon fill="black" stroke="black" points="188.9,-333.81 194.54,-324.84 184.54,-328.34 188.9,-333.81"/>
<text text-anchor="middle" x="193.29" y="-348.8" font-family="Times,serif" font-size="14.00">chooses</text>
</g>
<!-- mutate -->
<g id="node5" class="node">
<title>mutate</title>
<ellipse fill="none" stroke="black" cx="221.79" cy="-396" rx="35.19" ry="18"/>
<text text-anchor="middle" x="221.79" y="-392.3" font-family="Times,serif" font-size="14.00">mutate</text>
</g>
<!-- mutate&#45;&gt;columns -->
<g id="edge4" class="edge">
<title>mutate&#45;&gt;columns</title>
<path fill="none" stroke="black" d="M220.58,-377.8C219.76,-366.16 218.66,-350.55 217.72,-337.24"/>
<polygon fill="black" stroke="black" points="221.2,-336.9 217.01,-327.18 214.22,-337.4 221.2,-336.9"/>
<text text-anchor="middle" x="238.79" y="-348.8" font-family="Times,serif" font-size="14.00">creates</text>
</g>
<!-- tidy data -->
<g id="node6" class="node">
<title>tidy data</title>
<ellipse fill="none" stroke="black" cx="321.79" cy="-396" rx="41.69" ry="18"/>
<text text-anchor="middle" x="321.79" y="-392.3" font-family="Times,serif" font-size="14.00">tidy data</text>
</g>
<!-- tidy data&#45;&gt;columns -->
<g id="edge5" class="edge">
<title>tidy data&#45;&gt;columns</title>
<path fill="none" stroke="black" d="M303.85,-379.69C292.02,-369.69 276.11,-356.4 261.79,-345 255.97,-340.36 249.65,-335.46 243.62,-330.86"/>
<polygon fill="black" stroke="black" points="245.72,-328.06 235.64,-324.8 241.49,-333.63 245.72,-328.06"/>
<text text-anchor="middle" x="290.29" y="-348.8" font-family="Times,serif" font-size="14.00">has</text>
</g>
<!-- dataframe -->
<g id="node7" class="node">
<title>dataframe</title>
<ellipse fill="none" stroke="black" cx="395.79" cy="-309" rx="46.29" ry="18"/>
<text text-anchor="middle" x="395.79" y="-305.3" font-family="Times,serif" font-size="14.00">dataframe</text>
</g>
<!-- tidy data&#45;&gt;dataframe -->
<g id="edge6" class="edge">
<title>tidy data&#45;&gt;dataframe</title>
<path fill="none" stroke="black" d="M333.09,-378.22C340.09,-368.24 349.48,-355.51 358.79,-345 362.37,-340.97 366.34,-336.87 370.31,-332.97"/>
<polygon fill="black" stroke="black" points="373.03,-335.21 377.85,-325.78 368.2,-330.15 373.03,-335.21"/>
<text text-anchor="middle" x="382.79" y="-348.8" font-family="Times,serif" font-size="14.00">stored in</text>
</g>
<!-- rows -->
<g id="node12" class="node">
<title>rows</title>
<ellipse fill="none" stroke="black" cx="506.79" cy="-105" rx="27.9" ry="18"/>
<text text-anchor="middle" x="506.79" y="-101.3" font-family="Times,serif" font-size="14.00">rows</text>
</g>
<!-- tidy data&#45;&gt;rows -->
<g id="edge11" class="edge">
<title>tidy data&#45;&gt;rows</title>
<path fill="none" stroke="black" d="M318.69,-377.79C313.22,-342.19 305.55,-259.19 340.79,-204 370.95,-156.78 432.67,-129.4 471.76,-116.12"/>
<polygon fill="black" stroke="black" points="473,-119.39 481.42,-112.96 470.83,-112.74 473,-119.39"/>
<text text-anchor="middle" x="329.29" y="-261.8" font-family="Times,serif" font-size="14.00">has</text>
</g>
<!-- dplyr -->
<g id="node8" class="node">
<title>dplyr</title>
<ellipse fill="none" stroke="black" cx="503.79" cy="-396" rx="29.5" ry="18"/>
<text text-anchor="middle" x="503.79" y="-392.3" font-family="Times,serif" font-size="14.00">dplyr</text>
</g>
<!-- dplyr&#45;&gt;dataframe -->
<g id="edge7" class="edge">
<title>dplyr&#45;&gt;dataframe</title>
<path fill="none" stroke="black" d="M483.06,-383.08C472.48,-376.69 459.6,-368.41 448.79,-360 438.35,-351.86 427.58,-342.02 418.5,-333.23"/>
<polygon fill="black" stroke="black" points="420.9,-330.68 411.32,-326.15 415.99,-335.66 420.9,-330.68"/>
<text text-anchor="middle" x="474.29" y="-348.8" font-family="Times,serif" font-size="14.00">works on</text>
</g>
<!-- tidyverse -->
<g id="node9" class="node">
<title>tidyverse</title>
<ellipse fill="none" stroke="black" cx="607.79" cy="-309" rx="42.79" ry="18"/>
<text text-anchor="middle" x="607.79" y="-305.3" font-family="Times,serif" font-size="14.00">tidyverse</text>
</g>
<!-- dplyr&#45;&gt;tidyverse -->
<g id="edge8" class="edge">
<title>dplyr&#45;&gt;tidyverse</title>
<path fill="none" stroke="black" d="M526.55,-384.64C538.85,-378.45 553.91,-369.87 565.79,-360 574.65,-352.65 583.09,-343.26 590.05,-334.61"/>
<polygon fill="black" stroke="black" points="592.87,-336.68 596.23,-326.63 587.34,-332.39 592.87,-336.68"/>
<text text-anchor="middle" x="599.29" y="-348.8" font-family="Times,serif" font-size="14.00">part of</text>
</g>
<!-- functions -->
<g id="node10" class="node">
<title>functions</title>
<ellipse fill="none" stroke="black" cx="503.79" cy="-309" rx="43.59" ry="18"/>
<text text-anchor="middle" x="503.79" y="-305.3" font-family="Times,serif" font-size="14.00">functions</text>
</g>
<!-- dplyr&#45;&gt;functions -->
<g id="edge9" class="edge">
<title>dplyr&#45;&gt;functions</title>
<path fill="none" stroke="black" d="M503.79,-377.8C503.79,-366.16 503.79,-350.55 503.79,-337.24"/>
<polygon fill="black" stroke="black" points="507.29,-337.18 503.79,-327.18 500.29,-337.18 507.29,-337.18"/>
<text text-anchor="middle" x="532.79" y="-348.8" font-family="Times,serif" font-size="14.00">consists of</text>
</g>
<!-- verbs -->
<g id="node11" class="node">
<title>verbs</title>
<ellipse fill="none" stroke="black" cx="497.79" cy="-222" rx="29.8" ry="18"/>
<text text-anchor="middle" x="497.79" y="-218.3" font-family="Times,serif" font-size="14.00">verbs</text>
</g>
<!-- functions&#45;&gt;verbs -->
<g id="edge10" class="edge">
<title>functions&#45;&gt;verbs</title>
<path fill="none" stroke="black" d="M501.59,-290.93C500.92,-285.24 500.25,-278.85 499.79,-273 499.23,-265.67 498.82,-257.72 498.52,-250.36"/>
<polygon fill="black" stroke="black" points="502.01,-250.01 498.17,-240.14 495.02,-250.26 502.01,-250.01"/>
<text text-anchor="middle" x="528.79" y="-261.8" font-family="Times,serif" font-size="14.00">also called</text>
</g>
<!-- filter -->
<g id="node15" class="node">
<title>filter</title>
<ellipse fill="none" stroke="black" cx="572.79" cy="-222" rx="27.1" ry="18"/>
<text text-anchor="middle" x="572.79" y="-218.3" font-family="Times,serif" font-size="14.00">filter</text>
</g>
<!-- functions&#45;&gt;filter -->
<g id="edge14" class="edge">
<title>functions&#45;&gt;filter</title>
<path fill="none" stroke="black" d="M531.76,-294.97C541.19,-289.38 551.02,-282.03 557.79,-273 562.84,-266.27 566.2,-257.85 568.43,-249.85"/>
<polygon fill="black" stroke="black" points="571.85,-250.63 570.7,-240.09 565.03,-249.04 571.85,-250.63"/>
</g>
<!-- group_by -->
<g id="node16" class="node">
<title>group_by</title>
<ellipse fill="none" stroke="black" cx="661.79" cy="-222" rx="44.39" ry="18"/>
<text text-anchor="middle" x="661.79" y="-218.3" font-family="Times,serif" font-size="14.00">group_by</text>
</g>
<!-- functions&#45;&gt;group_by -->
<g id="edge15" class="edge">
<title>functions&#45;&gt;group_by</title>
<path fill="none" stroke="black" d="M531.31,-294.94C544.56,-288.53 560.61,-280.56 574.79,-273 592.91,-263.34 612.79,-251.98 628.97,-242.52"/>
<polygon fill="black" stroke="black" points="631.17,-245.29 638.02,-237.21 627.63,-239.25 631.17,-245.29"/>
</g>
<!-- summarize -->
<g id="node17" class="node">
<title>summarize</title>
<ellipse fill="none" stroke="black" cx="399.79" cy="-222" rx="50.09" ry="18"/>
<text text-anchor="middle" x="399.79" y="-218.3" font-family="Times,serif" font-size="14.00">summarize</text>
</g>
<!-- functions&#45;&gt;summarize -->
<g id="edge16" class="edge">
<title>functions&#45;&gt;summarize</title>
<path fill="none" stroke="black" d="M484.72,-292.41C468.55,-279.19 445.16,-260.08 427.02,-245.25"/>
<polygon fill="black" stroke="black" points="429.06,-242.4 419.1,-238.78 424.63,-247.82 429.06,-242.4"/>
</g>
<!-- observations -->
<g id="node13" class="node">
<title>observations</title>
<ellipse fill="none" stroke="black" cx="446.79" cy="-18" rx="55.49" ry="18"/>
<text text-anchor="middle" x="446.79" y="-14.3" font-family="Times,serif" font-size="14.00">observations</text>
</g>
<!-- rows&#45;&gt;observations -->
<g id="edge12" class="edge">
<title>rows&#45;&gt;observations</title>
<path fill="none" stroke="black" d="M495.79,-88.41C487.05,-76.03 474.65,-58.47 464.52,-44.11"/>
<polygon fill="black" stroke="black" points="467.18,-41.81 458.55,-35.65 461.46,-45.84 467.18,-41.81"/>
<text text-anchor="middle" x="505.79" y="-57.8" font-family="Times,serif" font-size="14.00">represent</text>
</g>
<!-- duplicated -->
<g id="node14" class="node">
<title>duplicated</title>
<ellipse fill="none" stroke="black" cx="567.79" cy="-18" rx="47.39" ry="18"/>
<text text-anchor="middle" x="567.79" y="-14.3" font-family="Times,serif" font-size="14.00">duplicated</text>
</g>
<!-- rows&#45;&gt;duplicated -->
<g id="edge13" class="edge">
<title>rows&#45;&gt;duplicated</title>
<path fill="none" stroke="black" d="M519.37,-88.9C524.31,-82.82 529.94,-75.67 534.79,-69 540.49,-61.18 546.4,-52.44 551.62,-44.49"/>
<polygon fill="black" stroke="black" points="554.66,-46.22 557.17,-35.93 548.79,-42.41 554.66,-46.22"/>
<text text-anchor="middle" x="565.29" y="-57.8" font-family="Times,serif" font-size="14.00">may be</text>
</g>
<!-- filter&#45;&gt;rows -->
<g id="edge17" class="edge">
<title>filter&#45;&gt;rows</title>
<path fill="none" stroke="black" d="M582.47,-204.94C591.43,-187.76 601.6,-160.38 588.79,-141 578.76,-125.81 560.65,-117.19 543.99,-112.31"/>
<polygon fill="black" stroke="black" points="544.44,-108.81 533.89,-109.73 542.71,-115.6 544.44,-108.81"/>
<text text-anchor="middle" x="616.29" y="-159.8" font-family="Times,serif" font-size="14.00">chooses</text>
</g>
<!-- filter&#45;&gt;rows -->
<g id="edge18" class="edge">
<title>filter&#45;&gt;rows</title>
<path fill="none" stroke="black" d="M551.68,-210.47C546.84,-208.21 541.68,-205.93 536.79,-204 512.48,-194.4 496.19,-207.13 480.79,-186 469.01,-169.84 474.51,-159.99 480.79,-141 482.16,-136.88 484.22,-132.84 486.59,-129.07"/>
<polygon fill="black" stroke="black" points="489.54,-130.97 492.52,-120.8 483.85,-126.89 489.54,-130.97"/>
<text text-anchor="middle" x="496.79" y="-159.8" font-family="Times,serif" font-size="14.00">labels</text>
</g>
<!-- filter&#45;&gt;rows -->
<g id="edge19" class="edge">
<title>filter&#45;&gt;rows</title>
<path fill="none" stroke="black" d="M553.95,-208.54C546.14,-202.54 537.57,-194.75 531.79,-186 521.27,-170.06 514.97,-149.44 511.32,-133.12"/>
<polygon fill="black" stroke="black" points="514.71,-132.22 509.29,-123.12 507.85,-133.61 514.71,-132.22"/>
<text text-anchor="middle" x="558.29" y="-174.8" font-family="Times,serif" font-size="14.00">combines</text>
<text text-anchor="middle" x="558.29" y="-159.8" font-family="Times,serif" font-size="14.00">values</text>
<text text-anchor="middle" x="558.29" y="-144.8" font-family="Times,serif" font-size="14.00">from</text>
</g>
</g>
</svg>
