<?xml version="1.0" encoding="UTF-8" standalone="no"?>
<!DOCTYPE svg PUBLIC "-//W3C//DTD SVG 1.1//EN"
 "http://www.w3.org/Graphics/SVG/1.1/DTD/svg11.dtd">
<!-- Generated by graphviz version 2.44.1 (20200629.0846)
 -->
<!-- Title: select Pages: 1 -->
<svg width="625pt" height="218pt"
 viewBox="0.00 0.00 625.06 218.00" xmlns="http://www.w3.org/2000/svg" xmlns:xlink="http://www.w3.org/1999/xlink">
<g id="graph0" class="graph" transform="scale(1 1) rotate(0) translate(4 214)">
<title>select</title>
<polygon fill="white" stroke="transparent" points="-4,4 -4,-214 621.06,-214 621.06,4 -4,4"/>
<!-- select -->
<g id="node1" class="node">
<title>select</title>
<ellipse fill="none" stroke="black" cx="201.96" cy="-192" rx="30.59" ry="18"/>
<text text-anchor="middle" x="201.96" y="-188.3" font-family="Times,serif" font-size="14.00">select</text>
</g>
<!-- rows -->
<g id="node2" class="node">
<title>rows</title>
<ellipse fill="none" stroke="black" cx="38.96" cy="-18" rx="27.9" ry="18"/>
<text text-anchor="middle" x="38.96" y="-14.3" font-family="Times,serif" font-size="14.00">rows</text>
</g>
<!-- select&#45;&gt;rows -->
<g id="edge1" class="edge">
<title>select&#45;&gt;rows</title>
<path fill="none" stroke="black" d="M171.38,-190.48C126.83,-187.87 45.33,-175.69 7.96,-123 -9.17,-98.85 6.41,-65.16 21,-42.74"/>
<polygon fill="black" stroke="black" points="23.91,-44.69 26.68,-34.46 18.14,-40.73 23.91,-44.69"/>
<text text-anchor="middle" x="30.96" y="-108.8" font-family="Times,serif" font-size="14.00">does not</text>
<text text-anchor="middle" x="30.96" y="-93.8" font-family="Times,serif" font-size="14.00">modify</text>
</g>
<!-- dataframe -->
<g id="node3" class="node">
<title>dataframe</title>
<ellipse fill="none" stroke="black" cx="108.96" cy="-105" rx="46.29" ry="18"/>
<text text-anchor="middle" x="108.96" y="-101.3" font-family="Times,serif" font-size="14.00">dataframe</text>
</g>
<!-- select&#45;&gt;dataframe -->
<g id="edge2" class="edge">
<title>select&#45;&gt;dataframe</title>
<path fill="none" stroke="black" d="M184.04,-177.09C176.19,-170.83 166.96,-163.22 158.96,-156 149.66,-147.6 139.82,-137.95 131.36,-129.38"/>
<polygon fill="black" stroke="black" points="133.82,-126.89 124.32,-122.19 128.81,-131.78 133.82,-126.89"/>
<text text-anchor="middle" x="178.46" y="-144.8" font-family="Times,serif" font-size="14.00">acts on</text>
</g>
<!-- dplyr -->
<g id="node4" class="node">
<title>dplyr</title>
<ellipse fill="none" stroke="black" cx="201.96" cy="-105" rx="29.5" ry="18"/>
<text text-anchor="middle" x="201.96" y="-101.3" font-family="Times,serif" font-size="14.00">dplyr</text>
</g>
<!-- select&#45;&gt;dplyr -->
<g id="edge3" class="edge">
<title>select&#45;&gt;dplyr</title>
<path fill="none" stroke="black" d="M201.96,-173.8C201.96,-162.16 201.96,-146.55 201.96,-133.24"/>
<polygon fill="black" stroke="black" points="205.46,-133.18 201.96,-123.18 198.46,-133.18 205.46,-133.18"/>
<text text-anchor="middle" x="220.46" y="-144.8" font-family="Times,serif" font-size="14.00">part of</text>
</g>
<!-- columns -->
<g id="node5" class="node">
<title>columns</title>
<ellipse fill="none" stroke="black" cx="230.96" cy="-18" rx="40.89" ry="18"/>
<text text-anchor="middle" x="230.96" y="-14.3" font-family="Times,serif" font-size="14.00">columns</text>
</g>
<!-- select&#45;&gt;columns -->
<g id="edge4" class="edge">
<title>select&#45;&gt;columns</title>
<path fill="none" stroke="black" d="M222.98,-178.64C230.77,-172.84 238.73,-165.18 242.96,-156 259.34,-120.47 249.83,-74.29 240.87,-45.65"/>
<polygon fill="black" stroke="black" points="244.12,-44.33 237.64,-35.95 237.48,-46.54 244.12,-44.33"/>
<text text-anchor="middle" x="273.46" y="-108.8" font-family="Times,serif" font-size="14.00">keeps</text>
<text text-anchor="middle" x="273.46" y="-93.8" font-family="Times,serif" font-size="14.00">some of</text>
</g>
<!-- names -->
<g id="node6" class="node">
<title>names</title>
<ellipse fill="none" stroke="black" cx="388.96" cy="-105" rx="33.6" ry="18"/>
<text text-anchor="middle" x="388.96" y="-101.3" font-family="Times,serif" font-size="14.00">names</text>
</g>
<!-- select&#45;&gt;names -->
<g id="edge5" class="edge">
<title>select&#45;&gt;names</title>
<path fill="none" stroke="black" d="M225.86,-180.53C241.55,-173.63 262.51,-164.36 280.96,-156 305.77,-144.76 333.66,-131.84 354.88,-121.95"/>
<polygon fill="black" stroke="black" points="356.55,-125.04 364.13,-117.64 353.59,-118.69 356.55,-125.04"/>
<text text-anchor="middle" x="336.46" y="-144.8" font-family="Times,serif" font-size="14.00">specifies</text>
</g>
<!-- dataframe&#45;&gt;rows -->
<g id="edge6" class="edge">
<title>dataframe&#45;&gt;rows</title>
<path fill="none" stroke="black" d="M95.46,-87.61C84.83,-74.71 69.89,-56.56 58.04,-42.17"/>
<polygon fill="black" stroke="black" points="60.53,-39.69 51.47,-34.2 55.13,-44.14 60.53,-39.69"/>
<text text-anchor="middle" x="88.46" y="-57.8" font-family="Times,serif" font-size="14.00">has</text>
</g>
<!-- dataframe&#45;&gt;columns -->
<g id="edge7" class="edge">
<title>dataframe&#45;&gt;columns</title>
<path fill="none" stroke="black" d="M130.49,-89C150.3,-75.2 179.83,-54.62 201.76,-39.34"/>
<polygon fill="black" stroke="black" points="203.85,-42.16 210.05,-33.57 199.85,-36.41 203.85,-42.16"/>
<text text-anchor="middle" x="186.46" y="-57.8" font-family="Times,serif" font-size="14.00">has</text>
</g>
<!-- names&#45;&gt;columns -->
<g id="edge8" class="edge">
<title>names&#45;&gt;columns</title>
<path fill="none" stroke="black" d="M362.18,-93.97C345.88,-87.53 324.82,-78.59 306.96,-69 290.71,-60.28 273.47,-49.11 259.53,-39.54"/>
<polygon fill="black" stroke="black" points="261.52,-36.66 251.31,-33.83 257.52,-42.41 261.52,-36.66"/>
<text text-anchor="middle" x="328.46" y="-57.8" font-family="Times,serif" font-size="14.00">identify</text>
</g>
<!-- explicit -->
<g id="node7" class="node">
<title>explicit</title>
<ellipse fill="none" stroke="black" cx="326.96" cy="-18" rx="37.09" ry="18"/>
<text text-anchor="middle" x="326.96" y="-14.3" font-family="Times,serif" font-size="14.00">explicit</text>
</g>
<!-- names&#45;&gt;explicit -->
<g id="edge9" class="edge">
<title>names&#45;&gt;explicit</title>
<path fill="none" stroke="black" d="M377.3,-88.01C368.18,-75.51 355.34,-57.9 344.91,-43.61"/>
<polygon fill="black" stroke="black" points="347.5,-41.22 338.78,-35.21 341.84,-45.35 347.5,-41.22"/>
</g>
<!-- range -->
<g id="node8" class="node">
<title>range</title>
<ellipse fill="none" stroke="black" cx="412.96" cy="-18" rx="30.59" ry="18"/>
<text text-anchor="middle" x="412.96" y="-14.3" font-family="Times,serif" font-size="14.00">range</text>
</g>
<!-- names&#45;&gt;range -->
<g id="edge10" class="edge">
<title>names&#45;&gt;range</title>
<path fill="none" stroke="black" d="M393.82,-86.8C397.16,-74.97 401.66,-59.03 405.45,-45.58"/>
<polygon fill="black" stroke="black" points="408.84,-46.46 408.19,-35.89 402.11,-44.56 408.84,-46.46"/>
</g>
<!-- negate -->
<g id="node9" class="node">
<title>negate</title>
<ellipse fill="none" stroke="black" cx="494.96" cy="-18" rx="33.6" ry="18"/>
<text text-anchor="middle" x="494.96" y="-14.3" font-family="Times,serif" font-size="14.00">negate</text>
</g>
<!-- names&#45;&gt;negate -->
<g id="edge11" class="edge">
<title>names&#45;&gt;negate</title>
<path fill="none" stroke="black" d="M406.94,-89.58C424,-75.9 449.81,-55.21 469.08,-39.75"/>
<polygon fill="black" stroke="black" points="471.28,-42.48 476.89,-33.49 466.9,-37.02 471.28,-42.48"/>
</g>
<!-- pattern -->
<g id="node10" class="node">
<title>pattern</title>
<ellipse fill="none" stroke="black" cx="581.96" cy="-18" rx="35.19" ry="18"/>
<text text-anchor="middle" x="581.96" y="-14.3" font-family="Times,serif" font-size="14.00">pattern</text>
</g>
<!-- names&#45;&gt;pattern -->
<g id="edge12" class="edge">
<title>names&#45;&gt;pattern</title>
<path fill="none" stroke="black" d="M414.19,-92.89C448.1,-77.95 508.54,-51.34 546.87,-34.46"/>
<polygon fill="black" stroke="black" points="548.36,-37.62 556.1,-30.39 545.54,-31.21 548.36,-37.62"/>
</g>
</g>
</svg>
