<?xml version="1.0" encoding="UTF-8" standalone="no"?>
<!DOCTYPE svg PUBLIC "-//W3C//DTD SVG 1.1//EN"
 "http://www.w3.org/Graphics/SVG/1.1/DTD/svg11.dtd">
<!-- Generated by graphviz version 2.44.1 (20200629.0846)
 -->
<!-- Title: data&#45;types Pages: 1 -->
<svg width="988pt" height="380pt"
 viewBox="0.00 0.00 988.15 380.00" xmlns="http://www.w3.org/2000/svg" xmlns:xlink="http://www.w3.org/1999/xlink">
<g id="graph0" class="graph" transform="scale(1 1) rotate(0) translate(4 376)">
<title>data&#45;types</title>
<polygon fill="white" stroke="transparent" points="-4,4 -4,-376 984.15,-376 984.15,4 -4,4"/>
<g id="clust1" class="cluster">
<title>cluster_table</title>
<polygon fill="none" stroke="black" points="670.15,-8 670.15,-206 972.15,-206 972.15,-8 670.15,-8"/>
</g>
<!-- data -->
<g id="node1" class="node">
<title>data</title>
<ellipse fill="none" stroke="black" cx="318.15" cy="-354" rx="27" ry="18"/>
<text text-anchor="middle" x="318.15" y="-350.3" font-family="Times,serif" font-size="14.00">data</text>
</g>
<!-- untidy -->
<g id="node2" class="node">
<title>untidy</title>
<ellipse fill="none" stroke="black" cx="33.15" cy="-267" rx="33.29" ry="18"/>
<text text-anchor="middle" x="33.15" y="-263.3" font-family="Times,serif" font-size="14.00">untidy</text>
</g>
<!-- data&#45;&gt;untidy -->
<g id="edge1" class="edge">
<title>data&#45;&gt;untidy</title>
<path fill="none" stroke="black" d="M290.97,-352.37C232.52,-350.54 97.13,-343.59 60.15,-318 51.93,-312.31 45.98,-303.29 41.8,-294.47"/>
<polygon fill="black" stroke="black" points="45,-293.04 37.93,-285.14 38.53,-295.72 45,-293.04"/>
<text text-anchor="middle" x="78.15" y="-306.8" font-family="Times,serif" font-size="14.00">can be</text>
</g>
<!-- tidy -->
<g id="node3" class="node">
<title>tidy</title>
<ellipse fill="none" stroke="black" cx="67.15" cy="-180" rx="27" ry="18"/>
<text text-anchor="middle" x="67.15" y="-176.3" font-family="Times,serif" font-size="14.00">tidy</text>
</g>
<!-- data&#45;&gt;tidy -->
<g id="edge2" class="edge">
<title>data&#45;&gt;tidy</title>
<path fill="none" stroke="black" d="M291.35,-351.24C249.02,-347.03 166.6,-332.81 119.15,-285 96.38,-262.06 111.84,-244.26 96.15,-216 93.74,-211.66 90.76,-207.34 87.64,-203.29"/>
<polygon fill="black" stroke="black" points="90.23,-200.93 81.17,-195.44 84.83,-205.38 90.23,-200.93"/>
<text text-anchor="middle" x="137.15" y="-263.3" font-family="Times,serif" font-size="14.00">can be</text>
</g>
<!-- CSV file -->
<g id="node4" class="node">
<title>CSV file</title>
<ellipse fill="none" stroke="black" cx="206.15" cy="-267" rx="41.69" ry="18"/>
<text text-anchor="middle" x="206.15" y="-263.3" font-family="Times,serif" font-size="14.00">CSV file</text>
</g>
<!-- data&#45;&gt;CSV file -->
<g id="edge4" class="edge">
<title>data&#45;&gt;CSV file</title>
<path fill="none" stroke="black" d="M299.05,-340.82C289.08,-334.29 276.77,-325.97 266.15,-318 254.39,-309.18 241.84,-298.87 231.27,-289.91"/>
<polygon fill="black" stroke="black" points="233.49,-287.2 223.61,-283.37 228.94,-292.52 233.49,-287.2"/>
<text text-anchor="middle" x="290.15" y="-306.8" font-family="Times,serif" font-size="14.00">stored in</text>
</g>
<!-- spreadsheet -->
<g id="node5" class="node">
<title>spreadsheet</title>
<ellipse fill="none" stroke="black" cx="318.15" cy="-267" rx="51.99" ry="18"/>
<text text-anchor="middle" x="318.15" y="-263.3" font-family="Times,serif" font-size="14.00">spreadsheet</text>
</g>
<!-- data&#45;&gt;spreadsheet -->
<g id="edge5" class="edge">
<title>data&#45;&gt;spreadsheet</title>
<path fill="none" stroke="black" d="M318.15,-335.8C318.15,-324.16 318.15,-308.55 318.15,-295.24"/>
<polygon fill="black" stroke="black" points="321.65,-295.18 318.15,-285.18 314.65,-295.18 321.65,-295.18"/>
<text text-anchor="middle" x="342.15" y="-306.8" font-family="Times,serif" font-size="14.00">stored in</text>
</g>
<!-- database -->
<g id="node6" class="node">
<title>database</title>
<ellipse fill="none" stroke="black" cx="429.15" cy="-267" rx="40.89" ry="18"/>
<text text-anchor="middle" x="429.15" y="-263.3" font-family="Times,serif" font-size="14.00">database</text>
</g>
<!-- data&#45;&gt;database -->
<g id="edge6" class="edge">
<title>data&#45;&gt;database</title>
<path fill="none" stroke="black" d="M337.27,-340.85C347.25,-334.33 359.56,-326.01 370.15,-318 381.64,-309.31 393.86,-299.12 404.19,-290.21"/>
<polygon fill="black" stroke="black" points="406.77,-292.6 412.01,-283.4 402.17,-287.33 406.77,-292.6"/>
<text text-anchor="middle" x="413.15" y="-306.8" font-family="Times,serif" font-size="14.00">stored in</text>
</g>
<!-- data type -->
<g id="node7" class="node">
<title>data type</title>
<ellipse fill="none" stroke="black" cx="531.15" cy="-267" rx="42.79" ry="18"/>
<text text-anchor="middle" x="531.15" y="-263.3" font-family="Times,serif" font-size="14.00">data type</text>
</g>
<!-- data&#45;&gt;data type -->
<g id="edge7" class="edge">
<title>data&#45;&gt;data type</title>
<path fill="none" stroke="black" d="M343.69,-347.54C368.98,-341.73 408.53,-331.49 441.15,-318 461.36,-309.64 482.8,-297.85 499.69,-287.82"/>
<polygon fill="black" stroke="black" points="501.82,-290.63 508.57,-282.46 498.2,-284.63 501.82,-290.63"/>
<text text-anchor="middle" x="481.65" y="-306.8" font-family="Times,serif" font-size="14.00">has</text>
</g>
<!-- storage type -->
<g id="node8" class="node">
<title>storage type</title>
<ellipse fill="none" stroke="black" cx="687.15" cy="-267" rx="53.89" ry="18"/>
<text text-anchor="middle" x="687.15" y="-263.3" font-family="Times,serif" font-size="14.00">storage type</text>
</g>
<!-- data&#45;&gt;storage type -->
<g id="edge8" class="edge">
<title>data&#45;&gt;storage type</title>
<path fill="none" stroke="black" d="M344.04,-348.38C378.62,-342.09 441.71,-330.23 495.15,-318 543.69,-306.89 598.64,-292.38 637.28,-281.86"/>
<polygon fill="black" stroke="black" points="638.51,-285.15 647.23,-279.13 636.67,-278.4 638.51,-285.15"/>
<text text-anchor="middle" x="563.65" y="-306.8" font-family="Times,serif" font-size="14.00">has</text>
</g>
<!-- untidy&#45;&gt;tidy -->
<g id="edge3" class="edge">
<title>untidy&#45;&gt;tidy</title>
<path fill="none" stroke="black" d="M26.26,-249.11C23.25,-239.08 21.38,-226.35 26.15,-216 29.15,-209.49 34.02,-203.74 39.38,-198.88"/>
<polygon fill="black" stroke="black" points="41.83,-201.41 47.42,-192.42 37.44,-195.96 41.83,-201.41"/>
<text text-anchor="middle" x="61.15" y="-219.8" font-family="Times,serif" font-size="14.00">can be made</text>
</g>
<!-- character -->
<g id="node9" class="node">
<title>character</title>
<ellipse fill="none" stroke="black" cx="328.15" cy="-180" rx="42.79" ry="18"/>
<text text-anchor="middle" x="328.15" y="-176.3" font-family="Times,serif" font-size="14.00">character</text>
</g>
<!-- data type&#45;&gt;character -->
<g id="edge9" class="edge">
<title>data type&#45;&gt;character</title>
<path fill="none" stroke="black" d="M500.23,-254.44C469.53,-242.79 421.22,-224.01 380.15,-206 374.93,-203.71 369.46,-201.21 364.12,-198.69"/>
<polygon fill="black" stroke="black" points="365.24,-195.35 354.7,-194.21 362.22,-201.67 365.24,-195.35"/>
</g>
<!-- numeric -->
<g id="node10" class="node">
<title>numeric</title>
<ellipse fill="none" stroke="black" cx="429.15" cy="-180" rx="40.09" ry="18"/>
<text text-anchor="middle" x="429.15" y="-176.3" font-family="Times,serif" font-size="14.00">numeric</text>
</g>
<!-- data type&#45;&gt;numeric -->
<g id="edge10" class="edge">
<title>data type&#45;&gt;numeric</title>
<path fill="none" stroke="black" d="M512.44,-250.41C496.38,-237.03 473.06,-217.6 455.18,-202.7"/>
<polygon fill="black" stroke="black" points="457.32,-199.92 447.39,-196.21 452.84,-205.3 457.32,-199.92"/>
</g>
<!-- date/time -->
<g id="node11" class="node">
<title>date/time</title>
<ellipse fill="none" stroke="black" cx="531.15" cy="-180" rx="44.39" ry="18"/>
<text text-anchor="middle" x="531.15" y="-176.3" font-family="Times,serif" font-size="14.00">date/time</text>
</g>
<!-- data type&#45;&gt;date/time -->
<g id="edge11" class="edge">
<title>data type&#45;&gt;date/time</title>
<path fill="none" stroke="black" d="M531.15,-248.8C531.15,-237.16 531.15,-221.55 531.15,-208.24"/>
<polygon fill="black" stroke="black" points="534.65,-208.18 531.15,-198.18 527.65,-208.18 534.65,-208.18"/>
</g>
<!-- logical -->
<g id="node12" class="node">
<title>logical</title>
<ellipse fill="none" stroke="black" cx="628.15" cy="-180" rx="34.39" ry="18"/>
<text text-anchor="middle" x="628.15" y="-176.3" font-family="Times,serif" font-size="14.00">logical</text>
</g>
<!-- data type&#45;&gt;logical -->
<g id="edge12" class="edge">
<title>data type&#45;&gt;logical</title>
<path fill="none" stroke="black" d="M548.94,-250.41C564.17,-237.06 586.26,-217.71 603.24,-202.82"/>
<polygon fill="black" stroke="black" points="605.9,-205.14 611.12,-195.92 601.29,-199.88 605.9,-205.14"/>
</g>
<!-- same type -->
<g id="node13" class="node">
<title>same type</title>
<text text-anchor="middle" x="796.15" y="-176.3" font-family="Times,serif" font-size="14.00">same type</text>
</g>
<!-- storage type&#45;&gt;same type -->
<g id="edge13" class="edge">
<title>storage type&#45;&gt;same type</title>
<path fill="none" stroke="black" d="M707.39,-250.21C721.06,-239.55 739.56,-225.12 756.14,-212.2"/>
<polygon fill="black" stroke="black" points="758.36,-214.91 764.09,-206 754.05,-209.39 758.36,-214.91"/>
<text text-anchor="middle" x="766.15" y="-219.8" font-family="Times,serif" font-size="14.00">can be</text>
</g>
<!-- list -->
<g id="node14" class="node">
<title>list</title>
<ellipse fill="none" stroke="black" cx="814.15" cy="-107" rx="27" ry="18"/>
<text text-anchor="middle" x="814.15" y="-103.3" font-family="Times,serif" font-size="14.00">list</text>
</g>
<!-- same type&#45;&gt;list -->
<!-- mixed types -->
<g id="node16" class="node">
<title>mixed types</title>
<text text-anchor="middle" x="909.15" y="-176.3" font-family="Times,serif" font-size="14.00">mixed types</text>
</g>
<!-- same type&#45;&gt;mixed types -->
<!-- dataframe -->
<g id="node15" class="node">
<title>dataframe</title>
<ellipse fill="none" stroke="black" cx="814.15" cy="-34" rx="46.29" ry="18"/>
<text text-anchor="middle" x="814.15" y="-30.3" font-family="Times,serif" font-size="14.00">dataframe</text>
</g>
<!-- list&#45;&gt;dataframe -->
<!-- vector -->
<g id="node17" class="node">
<title>vector</title>
<ellipse fill="none" stroke="black" cx="909.15" cy="-107" rx="32.49" ry="18"/>
<text text-anchor="middle" x="909.15" y="-103.3" font-family="Times,serif" font-size="14.00">vector</text>
</g>
<!-- list&#45;&gt;vector -->
<!-- list&#45;&gt;vector -->
<!-- matrix -->
<g id="node18" class="node">
<title>matrix</title>
<ellipse fill="none" stroke="black" cx="930.15" cy="-34" rx="34.39" ry="18"/>
<text text-anchor="middle" x="930.15" y="-30.3" font-family="Times,serif" font-size="14.00">matrix</text>
</g>
<!-- dataframe&#45;&gt;matrix -->
<!-- dataframe&#45;&gt;matrix -->
<!-- mixed types&#45;&gt;vector -->
<!-- vector&#45;&gt;matrix -->
<!-- 1D -->
<g id="node19" class="node">
<title>1D</title>
<text text-anchor="middle" x="724.15" y="-103.3" font-family="Times,serif" font-size="14.00">1D</text>
</g>
<!-- 1D&#45;&gt;list -->
<!-- 1D&#45;&gt;list -->
<!-- 2D -->
<g id="node20" class="node">
<title>2D</title>
<text text-anchor="middle" x="705.15" y="-30.3" font-family="Times,serif" font-size="14.00">2D</text>
</g>
<!-- 2D&#45;&gt;dataframe -->
<!-- 2D&#45;&gt;dataframe -->
</g>
</svg>
