<?xml version="1.0" encoding="UTF-8" standalone="no"?>
<!DOCTYPE svg PUBLIC "-//W3C//DTD SVG 1.1//EN"
 "http://www.w3.org/Graphics/SVG/1.1/DTD/svg11.dtd">
<!-- Generated by graphviz version 2.44.1 (20200629.0846)
 -->
<!-- Title: factors Pages: 1 -->
<svg width="861pt" height="305pt"
 viewBox="0.00 0.00 860.70 305.00" xmlns="http://www.w3.org/2000/svg" xmlns:xlink="http://www.w3.org/1999/xlink">
<g id="graph0" class="graph" transform="scale(1 1) rotate(0) translate(4 301)">
<title>factors</title>
<polygon fill="white" stroke="transparent" points="-4,4 -4,-301 856.7,-301 856.7,4 -4,4"/>
<!-- factors -->
<g id="node1" class="node">
<title>factors</title>
<ellipse fill="none" stroke="black" cx="373.7" cy="-279" rx="34.39" ry="18"/>
<text text-anchor="middle" x="373.7" y="-275.3" font-family="Times,serif" font-size="14.00">factors</text>
</g>
<!-- ordered -->
<g id="node2" class="node">
<title>ordered</title>
<ellipse fill="none" stroke="black" cx="37.7" cy="-192" rx="37.89" ry="18"/>
<text text-anchor="middle" x="37.7" y="-188.3" font-family="Times,serif" font-size="14.00">ordered</text>
</g>
<!-- factors&#45;&gt;ordered -->
<g id="edge1" class="edge">
<title>factors&#45;&gt;ordered</title>
<path fill="none" stroke="black" d="M339.02,-278.16C267.5,-277.86 106.63,-273.68 62.7,-243 54.72,-237.43 49.15,-228.55 45.34,-219.81"/>
<polygon fill="black" stroke="black" points="48.52,-218.33 41.74,-210.19 41.96,-220.78 48.52,-218.33"/>
<text text-anchor="middle" x="80.7" y="-231.8" font-family="Times,serif" font-size="14.00">can be</text>
</g>
<!-- unordered -->
<g id="node3" class="node">
<title>unordered</title>
<ellipse fill="none" stroke="black" cx="85.7" cy="-105" rx="46.29" ry="18"/>
<text text-anchor="middle" x="85.7" y="-101.3" font-family="Times,serif" font-size="14.00">unordered</text>
</g>
<!-- factors&#45;&gt;unordered -->
<g id="edge2" class="edge">
<title>factors&#45;&gt;unordered</title>
<path fill="none" stroke="black" d="M339.34,-277.15C290.32,-274.08 200.42,-261.28 147.7,-210 124.73,-187.66 107.13,-155.05 96.65,-132.32"/>
<polygon fill="black" stroke="black" points="99.74,-130.65 92.47,-122.94 93.34,-133.5 99.74,-130.65"/>
<text text-anchor="middle" x="165.7" y="-188.3" font-family="Times,serif" font-size="14.00">can be</text>
</g>
<!-- integers with names -->
<g id="node4" class="node">
<title>integers with names</title>
<ellipse fill="none" stroke="black" cx="254.7" cy="-105" rx="81.79" ry="18"/>
<text text-anchor="middle" x="254.7" y="-101.3" font-family="Times,serif" font-size="14.00">integers with names</text>
</g>
<!-- factors&#45;&gt;integers with names -->
<g id="edge4" class="edge">
<title>factors&#45;&gt;integers with names</title>
<path fill="none" stroke="black" d="M339.56,-276.18C297.21,-271.88 226.56,-257.54 193.7,-210 175.3,-183.39 201.34,-151.01 224.88,-129.52"/>
<polygon fill="black" stroke="black" points="227.47,-131.9 232.69,-122.68 222.86,-126.63 227.47,-131.9"/>
<text text-anchor="middle" x="237.7" y="-188.3" font-family="Times,serif" font-size="14.00">implemented as</text>
</g>
<!-- efficient storage -->
<g id="node5" class="node">
<title>efficient storage</title>
<ellipse fill="none" stroke="black" cx="526.7" cy="-18" rx="67.69" ry="18"/>
<text text-anchor="middle" x="526.7" y="-14.3" font-family="Times,serif" font-size="14.00">efficient storage</text>
</g>
<!-- factors&#45;&gt;efficient storage -->
<g id="edge6" class="edge">
<title>factors&#45;&gt;efficient storage</title>
<path fill="none" stroke="black" d="M408.43,-278.06C501.65,-277.39 753.76,-269.98 804.7,-210 877.14,-124.69 686.44,-60.3 585.15,-33.14"/>
<polygon fill="black" stroke="black" points="585.9,-29.72 575.34,-30.55 584.12,-36.49 585.9,-29.72"/>
<text text-anchor="middle" x="834.7" y="-144.8" font-family="Times,serif" font-size="14.00">enable</text>
</g>
<!-- value validation -->
<g id="node6" class="node">
<title>value validation</title>
<ellipse fill="none" stroke="black" cx="542.7" cy="-192" rx="67.69" ry="18"/>
<text text-anchor="middle" x="542.7" y="-188.3" font-family="Times,serif" font-size="14.00">value validation</text>
</g>
<!-- factors&#45;&gt;value validation -->
<g id="edge7" class="edge">
<title>factors&#45;&gt;value validation</title>
<path fill="none" stroke="black" d="M397.55,-266C424.96,-252.22 470.37,-229.38 503.1,-212.91"/>
<polygon fill="black" stroke="black" points="505.03,-215.86 512.4,-208.24 501.89,-209.61 505.03,-215.86"/>
<text text-anchor="middle" x="486.7" y="-231.8" font-family="Times,serif" font-size="14.00">enable</text>
</g>
<!-- non&#45;alphabetic order -->
<g id="node7" class="node">
<title>non&#45;alphabetic order</title>
<ellipse fill="none" stroke="black" cx="711.7" cy="-192" rx="83.69" ry="18"/>
<text text-anchor="middle" x="711.7" y="-188.3" font-family="Times,serif" font-size="14.00">non&#45;alphabetic order</text>
</g>
<!-- factors&#45;&gt;non&#45;alphabetic order -->
<g id="edge8" class="edge">
<title>factors&#45;&gt;non&#45;alphabetic order</title>
<path fill="none" stroke="black" d="M403.99,-270.38C459.08,-256.53 576.7,-226.95 649.51,-208.64"/>
<polygon fill="black" stroke="black" points="650.63,-211.97 659.47,-206.13 648.92,-205.18 650.63,-211.97"/>
<text text-anchor="middle" x="581.7" y="-231.8" font-family="Times,serif" font-size="14.00">enable</text>
</g>
<!-- limited set of values -->
<g id="node8" class="node">
<title>limited set of values</title>
<ellipse fill="none" stroke="black" cx="373.7" cy="-192" rx="83.39" ry="18"/>
<text text-anchor="middle" x="373.7" y="-188.3" font-family="Times,serif" font-size="14.00">limited set of values</text>
</g>
<!-- factors&#45;&gt;limited set of values -->
<g id="edge9" class="edge">
<title>factors&#45;&gt;limited set of values</title>
<path fill="none" stroke="black" d="M373.7,-260.8C373.7,-249.16 373.7,-233.55 373.7,-220.24"/>
<polygon fill="black" stroke="black" points="377.2,-220.18 373.7,-210.18 370.2,-220.18 377.2,-220.18"/>
<text text-anchor="middle" x="386.7" y="-231.8" font-family="Times,serif" font-size="14.00">have</text>
</g>
<!-- ordered&#45;&gt;unordered -->
<g id="edge3" class="edge">
<title>ordered&#45;&gt;unordered</title>
<path fill="none" stroke="black" d="M33.23,-163.82C33.12,-156.1 34.18,-147.92 37.7,-141 40.64,-135.21 45.04,-130.15 50.01,-125.81"/>
<polygon fill="black" stroke="black" points="29.75,-164.18 33.98,-173.9 36.73,-163.66 29.75,-164.18"/>
<polygon fill="black" stroke="black" points="52.33,-128.44 58.14,-119.58 48.07,-122.88 52.33,-128.44"/>
<text text-anchor="middle" x="68.2" y="-144.8" font-family="Times,serif" font-size="14.00">changeable</text>
</g>
<!-- integers with names&#45;&gt;efficient storage -->
<g id="edge5" class="edge">
<title>integers with names&#45;&gt;efficient storage</title>
<path fill="none" stroke="black" d="M299.92,-89.87C348.07,-74.82 424.16,-51.04 474.74,-35.24"/>
<polygon fill="black" stroke="black" points="476,-38.51 484.5,-32.19 473.91,-31.83 476,-38.51"/>
<text text-anchor="middle" x="422.2" y="-57.8" font-family="Times,serif" font-size="14.00">helps</text>
</g>
<!-- limited set of values&#45;&gt;integers with names -->
<g id="edge10" class="edge">
<title>limited set of values&#45;&gt;integers with names</title>
<path fill="none" stroke="black" d="M350.75,-174.61C332.31,-161.44 306.23,-142.81 285.89,-128.28"/>
<polygon fill="black" stroke="black" points="287.74,-125.3 277.57,-122.34 283.67,-131 287.74,-125.3"/>
<text text-anchor="middle" x="343.2" y="-144.8" font-family="Times,serif" font-size="14.00">because</text>
</g>
<!-- weekdays -->
<g id="node9" class="node">
<title>weekdays</title>
<ellipse fill="none" stroke="black" cx="399.7" cy="-105" rx="45.49" ry="18"/>
<text text-anchor="middle" x="399.7" y="-101.3" font-family="Times,serif" font-size="14.00">weekdays</text>
</g>
<!-- limited set of values&#45;&gt;weekdays -->
<g id="edge11" class="edge">
<title>limited set of values&#45;&gt;weekdays</title>
<path fill="none" stroke="black" d="M378.96,-173.8C382.58,-161.97 387.45,-146.03 391.57,-132.58"/>
<polygon fill="black" stroke="black" points="394.95,-133.47 394.53,-122.89 388.26,-131.42 394.95,-133.47"/>
<text text-anchor="middle" x="412.2" y="-144.8" font-family="Times,serif" font-size="14.00">example</text>
</g>
</g>
</svg>
