<?xml version="1.0" encoding="UTF-8" standalone="no"?>
<!DOCTYPE svg PUBLIC "-//W3C//DTD SVG 1.1//EN"
 "http://www.w3.org/Graphics/SVG/1.1/DTD/svg11.dtd">
<!-- Generated by graphviz version 2.44.1 (20200629.0846)
 -->
<!-- Title: filter Pages: 1 -->
<svg width="787pt" height="350pt"
 viewBox="0.00 0.00 786.58 350.00" xmlns="http://www.w3.org/2000/svg" xmlns:xlink="http://www.w3.org/1999/xlink">
<g id="graph0" class="graph" transform="scale(1 1) rotate(0) translate(4 346)">
<title>filter</title>
<polygon fill="white" stroke="transparent" points="-4,4 -4,-346 782.58,-346 782.58,4 -4,4"/>
<!-- filter -->
<g id="node1" class="node">
<title>filter</title>
<ellipse fill="none" stroke="black" cx="185.48" cy="-324" rx="27.1" ry="18"/>
<text text-anchor="middle" x="185.48" y="-320.3" font-family="Times,serif" font-size="14.00">filter</text>
</g>
<!-- columns -->
<g id="node2" class="node">
<title>columns</title>
<ellipse fill="none" stroke="black" cx="68.48" cy="-120" rx="40.89" ry="18"/>
<text text-anchor="middle" x="68.48" y="-116.3" font-family="Times,serif" font-size="14.00">columns</text>
</g>
<!-- filter&#45;&gt;columns -->
<g id="edge1" class="edge">
<title>filter&#45;&gt;columns</title>
<path fill="none" stroke="black" d="M158.17,-321.62C117.56,-317.92 42.41,-304.38 8.48,-255 -16.06,-219.28 18.46,-171.9 44.42,-144.11"/>
<polygon fill="black" stroke="black" points="47.03,-146.44 51.46,-136.81 41.99,-141.58 47.03,-146.44"/>
<text text-anchor="middle" x="31.48" y="-240.8" font-family="Times,serif" font-size="14.00">does not</text>
<text text-anchor="middle" x="31.48" y="-225.8" font-family="Times,serif" font-size="14.00">modify</text>
</g>
<!-- dplyr -->
<g id="node3" class="node">
<title>dplyr</title>
<ellipse fill="none" stroke="black" cx="92.48" cy="-237" rx="29.5" ry="18"/>
<text text-anchor="middle" x="92.48" y="-233.3" font-family="Times,serif" font-size="14.00">dplyr</text>
</g>
<!-- filter&#45;&gt;dplyr -->
<g id="edge2" class="edge">
<title>filter&#45;&gt;dplyr</title>
<path fill="none" stroke="black" d="M168.93,-309.25C161.39,-302.89 152.39,-295.16 144.48,-288 134.48,-278.93 123.68,-268.64 114.53,-259.75"/>
<polygon fill="black" stroke="black" points="116.88,-257.16 107.28,-252.68 111.99,-262.17 116.88,-257.16"/>
<text text-anchor="middle" x="162.98" y="-276.8" font-family="Times,serif" font-size="14.00">part of</text>
</g>
<!-- dataframe -->
<g id="node4" class="node">
<title>dataframe</title>
<ellipse fill="none" stroke="black" cx="185.48" cy="-237" rx="46.29" ry="18"/>
<text text-anchor="middle" x="185.48" y="-233.3" font-family="Times,serif" font-size="14.00">dataframe</text>
</g>
<!-- filter&#45;&gt;dataframe -->
<g id="edge3" class="edge">
<title>filter&#45;&gt;dataframe</title>
<path fill="none" stroke="black" d="M185.48,-305.8C185.48,-294.16 185.48,-278.55 185.48,-265.24"/>
<polygon fill="black" stroke="black" points="188.98,-265.18 185.48,-255.18 181.98,-265.18 188.98,-265.18"/>
<text text-anchor="middle" x="204.98" y="-276.8" font-family="Times,serif" font-size="14.00">acts on</text>
</g>
<!-- rows -->
<g id="node5" class="node">
<title>rows</title>
<ellipse fill="none" stroke="black" cx="283.48" cy="-120" rx="27.9" ry="18"/>
<text text-anchor="middle" x="283.48" y="-116.3" font-family="Times,serif" font-size="14.00">rows</text>
</g>
<!-- filter&#45;&gt;rows -->
<g id="edge4" class="edge">
<title>filter&#45;&gt;rows</title>
<path fill="none" stroke="black" d="M204.63,-310.89C212.9,-304.86 222.12,-296.94 228.48,-288 259.27,-244.72 273.61,-183.12 279.64,-148.1"/>
<polygon fill="black" stroke="black" points="283.11,-148.57 281.26,-138.14 276.2,-147.45 283.11,-148.57"/>
<text text-anchor="middle" x="282.98" y="-240.8" font-family="Times,serif" font-size="14.00">keeps</text>
<text text-anchor="middle" x="282.98" y="-225.8" font-family="Times,serif" font-size="14.00">some of</text>
</g>
<!-- condition -->
<g id="node6" class="node">
<title>condition</title>
<ellipse fill="none" stroke="black" cx="451.48" cy="-237" rx="44.39" ry="18"/>
<text text-anchor="middle" x="451.48" y="-233.3" font-family="Times,serif" font-size="14.00">condition</text>
</g>
<!-- filter&#45;&gt;condition -->
<g id="edge5" class="edge">
<title>filter&#45;&gt;condition</title>
<path fill="none" stroke="black" d="M209.56,-315.31C254.44,-300.97 351.45,-269.97 408.04,-251.88"/>
<polygon fill="black" stroke="black" points="409.32,-255.15 417.78,-248.77 407.19,-248.48 409.32,-255.15"/>
<text text-anchor="middle" x="356.98" y="-276.8" font-family="Times,serif" font-size="14.00">specifies</text>
</g>
<!-- dataframe&#45;&gt;columns -->
<g id="edge7" class="edge">
<title>dataframe&#45;&gt;columns</title>
<path fill="none" stroke="black" d="M169.22,-220.01C149.13,-200.27 114.83,-166.56 91.91,-144.03"/>
<polygon fill="black" stroke="black" points="94.2,-141.37 84.61,-136.85 89.29,-146.36 94.2,-141.37"/>
<text text-anchor="middle" x="157.98" y="-174.8" font-family="Times,serif" font-size="14.00">has</text>
</g>
<!-- dataframe&#45;&gt;rows -->
<g id="edge6" class="edge">
<title>dataframe&#45;&gt;rows</title>
<path fill="none" stroke="black" d="M193.33,-219.05C201.84,-201.88 216.61,-175.19 234.48,-156 240.53,-149.51 247.95,-143.48 255.16,-138.32"/>
<polygon fill="black" stroke="black" points="257.15,-141.2 263.45,-132.68 253.21,-135.41 257.15,-141.2"/>
<text text-anchor="middle" x="243.98" y="-174.8" font-family="Times,serif" font-size="14.00">has</text>
</g>
<!-- condition&#45;&gt;rows -->
<g id="edge8" class="edge">
<title>condition&#45;&gt;rows</title>
<path fill="none" stroke="black" d="M409.28,-231.18C370.35,-225.88 316.41,-216.04 301.48,-201 287.87,-187.27 283.63,-165.6 282.66,-148.27"/>
<polygon fill="black" stroke="black" points="286.15,-148.06 282.42,-138.15 279.15,-148.23 286.15,-148.06"/>
<text text-anchor="middle" x="326.48" y="-174.8" font-family="Times,serif" font-size="14.00">identifies</text>
</g>
<!-- condition&#45;&gt;rows -->
<g id="edge9" class="edge">
<title>condition&#45;&gt;rows</title>
<path fill="none" stroke="black" d="M414.9,-226.8C399.58,-221.4 382.57,-213.18 370.48,-201 355.2,-185.58 366.24,-171.92 351.48,-156 342.23,-146.01 329.47,-138.41 317.5,-132.88"/>
<polygon fill="black" stroke="black" points="318.73,-129.6 308.16,-128.89 315.98,-136.04 318.73,-129.6"/>
<text text-anchor="middle" x="397.98" y="-189.8" font-family="Times,serif" font-size="14.00">works</text>
<text text-anchor="middle" x="397.98" y="-174.8" font-family="Times,serif" font-size="14.00">separately</text>
<text text-anchor="middle" x="397.98" y="-159.8" font-family="Times,serif" font-size="14.00">on each</text>
</g>
<!-- Boolean -->
<g id="node7" class="node">
<title>Boolean</title>
<ellipse fill="none" stroke="black" cx="400.48" cy="-120" rx="40.09" ry="18"/>
<text text-anchor="middle" x="400.48" y="-116.3" font-family="Times,serif" font-size="14.00">Boolean</text>
</g>
<!-- condition&#45;&gt;Boolean -->
<g id="edge10" class="edge">
<title>condition&#45;&gt;Boolean</title>
<path fill="none" stroke="black" d="M448.96,-219C445.99,-202.25 440.06,-176.31 429.48,-156 427.47,-152.14 424.99,-148.32 422.32,-144.7"/>
<polygon fill="black" stroke="black" points="424.89,-142.32 415.91,-136.7 419.43,-146.69 424.89,-142.32"/>
<text text-anchor="middle" x="466.48" y="-174.8" font-family="Times,serif" font-size="14.00">must be</text>
</g>
<!-- comparison -->
<g id="node9" class="node">
<title>comparison</title>
<ellipse fill="none" stroke="black" cx="510.48" cy="-120" rx="51.99" ry="18"/>
<text text-anchor="middle" x="510.48" y="-116.3" font-family="Times,serif" font-size="14.00">comparison</text>
</g>
<!-- condition&#45;&gt;comparison -->
<g id="edge12" class="edge">
<title>condition&#45;&gt;comparison</title>
<path fill="none" stroke="black" d="M474.07,-221.09C480.92,-215.54 487.84,-208.69 492.48,-201 502.13,-185 506.62,-164.38 508.7,-148.08"/>
<polygon fill="black" stroke="black" points="512.19,-148.4 509.75,-138.08 505.23,-147.66 512.19,-148.4"/>
</g>
<!-- membership -->
<g id="node10" class="node">
<title>membership</title>
<ellipse fill="none" stroke="black" cx="635.48" cy="-120" rx="55.49" ry="18"/>
<text text-anchor="middle" x="635.48" y="-116.3" font-family="Times,serif" font-size="14.00">membership</text>
</g>
<!-- condition&#45;&gt;membership -->
<g id="edge13" class="edge">
<title>condition&#45;&gt;membership</title>
<path fill="none" stroke="black" d="M477.04,-222.07C488.32,-215.8 501.66,-208.2 513.48,-201 544.89,-181.87 579.9,-158.71 604.34,-142.24"/>
<polygon fill="black" stroke="black" points="606.51,-145 612.84,-136.5 602.59,-139.2 606.51,-145"/>
</g>
<!-- pattern -->
<g id="node11" class="node">
<title>pattern</title>
<ellipse fill="none" stroke="black" cx="743.48" cy="-120" rx="35.19" ry="18"/>
<text text-anchor="middle" x="743.48" y="-116.3" font-family="Times,serif" font-size="14.00">pattern</text>
</g>
<!-- condition&#45;&gt;pattern -->
<g id="edge14" class="edge">
<title>condition&#45;&gt;pattern</title>
<path fill="none" stroke="black" d="M486.49,-225.9C508.26,-219.36 536.74,-210.35 561.48,-201 614.1,-181.13 673.46,-154.15 709.68,-137.15"/>
<polygon fill="black" stroke="black" points="711.25,-140.28 718.81,-132.85 708.27,-133.95 711.25,-140.28"/>
</g>
<!-- and / or / not -->
<g id="node8" class="node">
<title>and / or / not</title>
<ellipse fill="none" stroke="black" cx="400.48" cy="-18" rx="56.59" ry="18"/>
<text text-anchor="middle" x="400.48" y="-14.3" font-family="Times,serif" font-size="14.00">and / or / not</text>
</g>
<!-- Boolean&#45;&gt;and / or / not -->
<g id="edge11" class="edge">
<title>Boolean&#45;&gt;and / or / not</title>
<path fill="none" stroke="black" d="M400.48,-101.58C400.48,-86.38 400.48,-64.07 400.48,-46.46"/>
<polygon fill="black" stroke="black" points="403.98,-46.22 400.48,-36.22 396.98,-46.22 403.98,-46.22"/>
<text text-anchor="middle" x="427.98" y="-72.8" font-family="Times,serif" font-size="14.00">combined</text>
<text text-anchor="middle" x="427.98" y="-57.8" font-family="Times,serif" font-size="14.00">with</text>
</g>
</g>
</svg>
