<?xml version="1.0" encoding="UTF-8" standalone="no"?>
<!DOCTYPE svg PUBLIC "-//W3C//DTD SVG 1.1//EN"
 "http://www.w3.org/Graphics/SVG/1.1/DTD/svg11.dtd">
<!-- Generated by graphviz version 2.44.1 (20200629.0846)
 -->
<!-- Title: group_by_summarize Pages: 1 -->
<svg width="521pt" height="248pt"
 viewBox="0.00 0.00 521.34 248.00" xmlns="http://www.w3.org/2000/svg" xmlns:xlink="http://www.w3.org/1999/xlink">
<g id="graph0" class="graph" transform="scale(1 1) rotate(0) translate(4 244)">
<title>group_by_summarize</title>
<polygon fill="white" stroke="transparent" points="-4,4 -4,-244 517.34,-244 517.34,4 -4,4"/>
<!-- group_by -->
<g id="node1" class="node">
<title>group_by</title>
<ellipse fill="none" stroke="black" cx="255.2" cy="-222" rx="44.39" ry="18"/>
<text text-anchor="middle" x="255.2" y="-218.3" font-family="Times,serif" font-size="14.00">group_by</text>
</g>
<!-- dplyr -->
<g id="node2" class="node">
<title>dplyr</title>
<ellipse fill="none" stroke="black" cx="264.2" cy="-18" rx="29.5" ry="18"/>
<text text-anchor="middle" x="264.2" y="-14.3" font-family="Times,serif" font-size="14.00">dplyr</text>
</g>
<!-- group_by&#45;&gt;dplyr -->
<g id="edge1" class="edge">
<title>group_by&#45;&gt;dplyr</title>
<path fill="none" stroke="black" d="M280.38,-206.9C287.79,-201.41 295.02,-194.39 299.2,-186 325.37,-133.48 325.76,-107.74 302.2,-54 299.71,-48.32 295.78,-43.15 291.39,-38.63"/>
<polygon fill="black" stroke="black" points="293.47,-35.8 283.71,-31.67 288.77,-40.98 293.47,-35.8"/>
<text text-anchor="middle" x="337.7" y="-101.3" font-family="Times,serif" font-size="14.00">part of</text>
</g>
<!-- summarize -->
<g id="node3" class="node">
<title>summarize</title>
<ellipse fill="none" stroke="black" cx="189.2" cy="-105" rx="50.09" ry="18"/>
<text text-anchor="middle" x="189.2" y="-101.3" font-family="Times,serif" font-size="14.00">summarize</text>
</g>
<!-- group_by&#45;&gt;summarize -->
<g id="edge5" class="edge">
<title>group_by&#45;&gt;summarize</title>
<path fill="none" stroke="black" d="M218.56,-211.77C205.39,-206.5 191.89,-198.37 184.2,-186 174.49,-170.39 176.13,-149.6 179.99,-133.12"/>
<polygon fill="black" stroke="black" points="183.49,-133.58 182.75,-123.01 176.74,-131.74 183.49,-133.58"/>
<text text-anchor="middle" x="208.7" y="-174.8" font-family="Times,serif" font-size="14.00">usually</text>
<text text-anchor="middle" x="208.7" y="-159.8" font-family="Times,serif" font-size="14.00">followed</text>
<text text-anchor="middle" x="208.7" y="-144.8" font-family="Times,serif" font-size="14.00">by</text>
</g>
<!-- columns -->
<g id="node4" class="node">
<title>columns</title>
<ellipse fill="none" stroke="black" cx="412.2" cy="-105" rx="40.89" ry="18"/>
<text text-anchor="middle" x="412.2" y="-101.3" font-family="Times,serif" font-size="14.00">columns</text>
</g>
<!-- group_by&#45;&gt;columns -->
<g id="edge3" class="edge">
<title>group_by&#45;&gt;columns</title>
<path fill="none" stroke="black" d="M286.39,-209.24C300.38,-203.27 316.72,-195.31 330.2,-186 336.75,-181.47 367.18,-151.31 389.06,-129.35"/>
<polygon fill="black" stroke="black" points="391.82,-131.54 396.39,-121.99 386.86,-126.61 391.82,-131.54"/>
<text text-anchor="middle" x="397.7" y="-159.8" font-family="Times,serif" font-size="14.00">specifies</text>
</g>
<!-- labels -->
<g id="node5" class="node">
<title>labels</title>
<ellipse fill="none" stroke="black" cx="31.2" cy="-18" rx="31.4" ry="18"/>
<text text-anchor="middle" x="31.2" y="-14.3" font-family="Times,serif" font-size="14.00">labels</text>
</g>
<!-- group_by&#45;&gt;labels -->
<g id="edge4" class="edge">
<title>group_by&#45;&gt;labels</title>
<path fill="none" stroke="black" d="M222.7,-209.63C206.97,-203.55 188.09,-195.38 172.2,-186 133.22,-163 123.12,-156.05 92.2,-123 70.39,-99.7 52.93,-67.27 42.36,-44.85"/>
<polygon fill="black" stroke="black" points="45.48,-43.25 38.14,-35.61 39.12,-46.16 45.48,-43.25"/>
<text text-anchor="middle" x="111.2" y="-101.3" font-family="Times,serif" font-size="14.00">creates</text>
</g>
<!-- summarize&#45;&gt;group_by -->
<g id="edge6" class="edge">
<title>summarize&#45;&gt;group_by</title>
<path fill="none" stroke="black" d="M213.68,-121.11C220.87,-126.59 228.14,-133.34 233.2,-141 243.61,-156.78 249.13,-177.4 252.04,-193.76"/>
<polygon fill="black" stroke="black" points="248.6,-194.46 253.59,-203.8 255.52,-193.38 248.6,-194.46"/>
<text text-anchor="middle" x="272.2" y="-167.3" font-family="Times,serif" font-size="14.00">does not</text>
<text text-anchor="middle" x="272.2" y="-152.3" font-family="Times,serif" font-size="14.00">require</text>
</g>
<!-- summarize&#45;&gt;dplyr -->
<g id="edge2" class="edge">
<title>summarize&#45;&gt;dplyr</title>
<path fill="none" stroke="black" d="M187.4,-86.83C187.19,-76.45 188.58,-63.46 195.2,-54 203.03,-42.8 215.55,-34.97 227.78,-29.6"/>
<polygon fill="black" stroke="black" points="229.41,-32.73 237.43,-25.81 226.85,-26.21 229.41,-32.73"/>
<text text-anchor="middle" x="213.7" y="-57.8" font-family="Times,serif" font-size="14.00">part of</text>
</g>
<!-- summarize&#45;&gt;labels -->
<g id="edge9" class="edge">
<title>summarize&#45;&gt;labels</title>
<path fill="none" stroke="black" d="M145.08,-96.41C122.86,-91.15 96.24,-82.59 75.2,-69 64.79,-62.28 55.38,-52.42 47.96,-43.23"/>
<polygon fill="black" stroke="black" points="50.59,-40.9 41.74,-35.08 45.03,-45.15 50.59,-40.9"/>
<text text-anchor="middle" x="95.7" y="-57.8" font-family="Times,serif" font-size="14.00">can use</text>
</g>
<!-- rows -->
<g id="node6" class="node">
<title>rows</title>
<ellipse fill="none" stroke="black" cx="414.2" cy="-18" rx="27.9" ry="18"/>
<text text-anchor="middle" x="414.2" y="-14.3" font-family="Times,serif" font-size="14.00">rows</text>
</g>
<!-- summarize&#45;&gt;rows -->
<g id="edge7" class="edge">
<title>summarize&#45;&gt;rows</title>
<path fill="none" stroke="black" d="M222.4,-91.46C264.95,-75.38 338.3,-47.67 380.9,-31.58"/>
<polygon fill="black" stroke="black" points="382.4,-34.75 390.52,-27.95 379.93,-28.21 382.4,-34.75"/>
<text text-anchor="middle" x="337.7" y="-57.8" font-family="Times,serif" font-size="14.00">specifies</text>
</g>
<!-- function -->
<g id="node7" class="node">
<title>function</title>
<ellipse fill="none" stroke="black" cx="124.2" cy="-18" rx="40.09" ry="18"/>
<text text-anchor="middle" x="124.2" y="-14.3" font-family="Times,serif" font-size="14.00">function</text>
</g>
<!-- summarize&#45;&gt;function -->
<g id="edge8" class="edge">
<title>summarize&#45;&gt;function</title>
<path fill="none" stroke="black" d="M153.17,-92.42C142.3,-87.07 131.57,-79.5 125.2,-69 121.06,-62.19 119.77,-53.83 119.8,-45.92"/>
<polygon fill="black" stroke="black" points="123.29,-46.15 120.49,-35.93 116.31,-45.67 123.29,-46.15"/>
<text text-anchor="middle" x="148.7" y="-57.8" font-family="Times,serif" font-size="14.00">specifies</text>
</g>
<!-- dataframe -->
<g id="node8" class="node">
<title>dataframe</title>
<ellipse fill="none" stroke="black" cx="467.2" cy="-222" rx="46.29" ry="18"/>
<text text-anchor="middle" x="467.2" y="-218.3" font-family="Times,serif" font-size="14.00">dataframe</text>
</g>
<!-- dataframe&#45;&gt;columns -->
<g id="edge10" class="edge">
<title>dataframe&#45;&gt;columns</title>
<path fill="none" stroke="black" d="M459.08,-204.03C449.97,-184.98 435.09,-153.86 424.53,-131.8"/>
<polygon fill="black" stroke="black" points="427.64,-130.18 420.17,-122.66 421.32,-133.2 427.64,-130.18"/>
<text text-anchor="middle" x="458.7" y="-159.8" font-family="Times,serif" font-size="14.00">has</text>
</g>
<!-- dataframe&#45;&gt;rows -->
<g id="edge11" class="edge">
<title>dataframe&#45;&gt;rows</title>
<path fill="none" stroke="black" d="M470.31,-203.67C474.24,-177.3 478.65,-126.04 462.2,-87 455.36,-70.77 444.15,-54.58 434.29,-42.07"/>
<polygon fill="black" stroke="black" points="436.77,-39.59 427.74,-34.05 431.35,-44.01 436.77,-39.59"/>
<text text-anchor="middle" x="480.7" y="-101.3" font-family="Times,serif" font-size="14.00">has</text>
</g>
</g>
</svg>
