<?xml version="1.0" encoding="UTF-8" standalone="no"?>
<!DOCTYPE svg PUBLIC "-//W3C//DTD SVG 1.1//EN"
 "http://www.w3.org/Graphics/SVG/1.1/DTD/svg11.dtd">
<!-- Generated by graphviz version 2.44.1 (20200629.0846)
 -->
<!-- Title: join Pages: 1 -->
<svg width="533pt" height="792pt"
 viewBox="0.00 0.00 533.42 792.00" xmlns="http://www.w3.org/2000/svg" xmlns:xlink="http://www.w3.org/1999/xlink">
<g id="graph0" class="graph" transform="scale(1 1) rotate(0) translate(4 788)">
<title>join</title>
<polygon fill="white" stroke="transparent" points="-4,4 -4,-788 529.42,-788 529.42,4 -4,4"/>
<!-- dataframes -->
<g id="node1" class="node">
<title>dataframes</title>
<ellipse fill="none" stroke="black" cx="170.2" cy="-766" rx="50.09" ry="18"/>
<text text-anchor="middle" x="170.2" y="-762.3" font-family="Times,serif" font-size="14.00">dataframes</text>
</g>
<!-- rows -->
<g id="node2" class="node">
<title>rows</title>
<ellipse fill="none" stroke="black" cx="171.2" cy="-505" rx="27.9" ry="18"/>
<text text-anchor="middle" x="171.2" y="-501.3" font-family="Times,serif" font-size="14.00">rows</text>
</g>
<!-- dataframes&#45;&gt;rows -->
<g id="edge1" class="edge">
<title>dataframes&#45;&gt;rows</title>
<path fill="none" stroke="black" d="M170.26,-747.6C170.43,-703.46 170.88,-586.83 171.09,-533.42"/>
<polygon fill="black" stroke="black" points="174.59,-533.33 171.13,-523.32 167.59,-533.31 174.59,-533.33"/>
<text text-anchor="middle" x="184.2" y="-631.8" font-family="Times,serif" font-size="14.00">have</text>
</g>
<!-- columns -->
<g id="node3" class="node">
<title>columns</title>
<ellipse fill="none" stroke="black" cx="223.2" cy="-679" rx="40.89" ry="18"/>
<text text-anchor="middle" x="223.2" y="-675.3" font-family="Times,serif" font-size="14.00">columns</text>
</g>
<!-- dataframes&#45;&gt;columns -->
<g id="edge2" class="edge">
<title>dataframes&#45;&gt;columns</title>
<path fill="none" stroke="black" d="M180.67,-748.21C188.34,-735.9 198.88,-719 207.55,-705.09"/>
<polygon fill="black" stroke="black" points="210.61,-706.81 212.93,-696.47 204.67,-703.1 210.61,-706.81"/>
<text text-anchor="middle" x="213.2" y="-718.8" font-family="Times,serif" font-size="14.00">have</text>
</g>
<!-- keys -->
<g id="node4" class="node">
<title>keys</title>
<ellipse fill="none" stroke="black" cx="223.2" cy="-592" rx="27" ry="18"/>
<text text-anchor="middle" x="223.2" y="-588.3" font-family="Times,serif" font-size="14.00">keys</text>
</g>
<!-- columns&#45;&gt;keys -->
<g id="edge3" class="edge">
<title>columns&#45;&gt;keys</title>
<path fill="none" stroke="black" d="M223.2,-660.8C223.2,-649.16 223.2,-633.55 223.2,-620.24"/>
<polygon fill="black" stroke="black" points="226.7,-620.18 223.2,-610.18 219.7,-620.18 226.7,-620.18"/>
<text text-anchor="middle" x="262.7" y="-631.8" font-family="Times,serif" font-size="14.00">can be used as</text>
</g>
<!-- keys&#45;&gt;rows -->
<g id="edge4" class="edge">
<title>keys&#45;&gt;rows</title>
<path fill="none" stroke="black" d="M206.54,-577.33C200.09,-571.34 193.1,-563.88 188.2,-556 183.82,-548.96 180.41,-540.66 177.84,-532.87"/>
<polygon fill="black" stroke="black" points="181.13,-531.65 174.92,-523.06 174.42,-533.64 181.13,-531.65"/>
<text text-anchor="middle" x="241.2" y="-544.8" font-family="Times,serif" font-size="14.00">control selection of</text>
</g>
<!-- can be in -->
<g id="node5" class="node">
<title>can be in</title>
<ellipse fill="none" stroke="black" stroke-dasharray="5,2" cx="308.2" cy="-505" rx="42.79" ry="18"/>
<text text-anchor="middle" x="308.2" y="-501.3" font-family="Times,serif" font-size="14.00">can be in</text>
</g>
<!-- keys&#45;&gt;can be in -->
<g id="edge5" class="edge">
<title>keys&#45;&gt;can be in</title>
<path fill="none" stroke="black" d="M247.84,-584.5C263.25,-579.23 282.35,-570.27 294.2,-556 299.54,-549.56 302.85,-541.22 304.9,-533.2"/>
<polygon fill="black" stroke="black" points="308.33,-533.88 306.87,-523.38 301.47,-532.5 308.33,-533.88"/>
</g>
<!-- left only -->
<g id="node6" class="node">
<title>left only</title>
<ellipse fill="none" stroke="black" cx="174.2" cy="-432" rx="40.09" ry="18"/>
<text text-anchor="middle" x="174.2" y="-428.3" font-family="Times,serif" font-size="14.00">left only</text>
</g>
<!-- can be in&#45;&gt;left only -->
<g id="edge6" class="edge">
<title>can be in&#45;&gt;left only</title>
<path fill="none" stroke="black" d="M282.68,-490.48C261.59,-479.3 231.46,-463.34 208.3,-451.07"/>
<polygon fill="black" stroke="black" points="209.64,-447.82 199.17,-446.23 206.36,-454.01 209.64,-447.82"/>
</g>
<!-- both -->
<g id="node7" class="node">
<title>both</title>
<ellipse fill="none" stroke="black" cx="308.2" cy="-345" rx="27" ry="18"/>
<text text-anchor="middle" x="308.2" y="-341.3" font-family="Times,serif" font-size="14.00">both</text>
</g>
<!-- can be in&#45;&gt;both -->
<g id="edge7" class="edge">
<title>can be in&#45;&gt;both</title>
<path fill="none" stroke="black" d="M308.2,-486.79C308.2,-459.48 308.2,-405.99 308.2,-373.38"/>
<polygon fill="black" stroke="black" points="311.7,-373.19 308.2,-363.19 304.7,-373.19 311.7,-373.19"/>
</g>
<!-- right only -->
<g id="node8" class="node">
<title>right only</title>
<ellipse fill="none" stroke="black" cx="458.2" cy="-272" rx="45.49" ry="18"/>
<text text-anchor="middle" x="458.2" y="-268.3" font-family="Times,serif" font-size="14.00">right only</text>
</g>
<!-- can be in&#45;&gt;right only -->
<g id="edge8" class="edge">
<title>can be in&#45;&gt;right only</title>
<path fill="none" stroke="black" d="M318.98,-487.39C344.92,-447.44 410.91,-345.82 441.79,-298.26"/>
<polygon fill="black" stroke="black" points="444.79,-300.07 447.3,-289.77 438.92,-296.25 444.79,-300.07"/>
</g>
<!-- left only&#45;&gt;both -->
<!-- left join -->
<g id="node10" class="node">
<title>left join</title>
<ellipse fill="none" stroke="black" cx="158.2" cy="-218" rx="38.19" ry="18"/>
<text text-anchor="middle" x="158.2" y="-214.3" font-family="Times,serif" font-size="14.00">left join</text>
</g>
<!-- left only&#45;&gt;left join -->
<g id="edge10" class="edge">
<title>left only&#45;&gt;left join</title>
<path fill="none" stroke="black" d="M133.98,-430.66C100.71,-428.45 53.78,-420.68 21.2,-396 7.88,-385.91 7.32,-379.19 3.2,-363 -11.21,-306.5 27.89,-286.65 76.2,-254 89.01,-245.34 104.32,-238.1 118.22,-232.5"/>
<polygon fill="black" stroke="black" points="119.5,-235.76 127.57,-228.89 116.98,-229.23 119.5,-235.76"/>
</g>
<!-- full join -->
<g id="node12" class="node">
<title>full join</title>
<ellipse fill="none" stroke="black" cx="365.2" cy="-164" rx="38.99" ry="18"/>
<text text-anchor="middle" x="365.2" y="-160.3" font-family="Times,serif" font-size="14.00">full join</text>
</g>
<!-- left only&#45;&gt;full join -->
<g id="edge14" class="edge">
<title>left only&#45;&gt;full join</title>
<path fill="none" stroke="black" d="M213.59,-428.2C287.37,-420.57 444.99,-392.48 512.2,-290 545.06,-239.89 460.23,-198.78 406.14,-178.56"/>
<polygon fill="black" stroke="black" points="407.02,-175.16 396.43,-175.03 404.63,-181.74 407.02,-175.16"/>
</g>
<!-- anti&#45;join -->
<g id="node14" class="node">
<title>anti&#45;join</title>
<ellipse fill="none" stroke="black" cx="52.2" cy="-345" rx="40.09" ry="18"/>
<text text-anchor="middle" x="52.2" y="-341.3" font-family="Times,serif" font-size="14.00">anti&#45;join</text>
</g>
<!-- left only&#45;&gt;anti&#45;join -->
<g id="edge22" class="edge">
<title>left only&#45;&gt;anti&#45;join</title>
<path fill="none" stroke="black" d="M135.24,-427.06C96.6,-422.25 41.31,-412.63 28.2,-396 22.11,-388.29 24.69,-378.78 29.99,-370.14"/>
<polygon fill="black" stroke="black" points="32.94,-372.03 35.97,-361.88 27.27,-367.92 32.94,-372.03"/>
</g>
<!-- both&#45;&gt;right only -->
<!-- inner join -->
<g id="node9" class="node">
<title>inner join</title>
<ellipse fill="none" stroke="black" cx="350.2" cy="-272" rx="44.69" ry="18"/>
<text text-anchor="middle" x="350.2" y="-268.3" font-family="Times,serif" font-size="14.00">inner join</text>
</g>
<!-- both&#45;&gt;inner join -->
<g id="edge9" class="edge">
<title>both&#45;&gt;inner join</title>
<path fill="none" stroke="black" d="M317.73,-327.89C322.79,-319.33 329.13,-308.61 334.87,-298.91"/>
<polygon fill="black" stroke="black" points="338.04,-300.43 340.12,-290.04 332.01,-296.86 338.04,-300.43"/>
</g>
<!-- both&#45;&gt;left join -->
<g id="edge11" class="edge">
<title>both&#45;&gt;left join</title>
<path fill="none" stroke="black" d="M285.54,-334.62C261.41,-324.59 226.48,-310.01 225.2,-309 218.92,-304.08 193.28,-268.65 175.6,-243.74"/>
<polygon fill="black" stroke="black" points="178.36,-241.58 169.72,-235.44 172.64,-245.62 178.36,-241.58"/>
</g>
<!-- right join -->
<g id="node11" class="node">
<title>right join</title>
<ellipse fill="none" stroke="black" cx="264.2" cy="-164" rx="43.59" ry="18"/>
<text text-anchor="middle" x="264.2" y="-160.3" font-family="Times,serif" font-size="14.00">right join</text>
</g>
<!-- both&#45;&gt;right join -->
<g id="edge13" class="edge">
<title>both&#45;&gt;right join</title>
<path fill="none" stroke="black" d="M287.07,-333.3C277.95,-327.47 268.24,-319.31 263.2,-309 244.92,-271.63 250.82,-222.01 257.2,-191.85"/>
<polygon fill="black" stroke="black" points="260.62,-192.57 259.43,-182.04 253.8,-191.01 260.62,-192.57"/>
</g>
<!-- both&#45;&gt;full join -->
<g id="edge15" class="edge">
<title>both&#45;&gt;full join</title>
<path fill="none" stroke="black" d="M301.53,-327.3C295.19,-308.88 287.77,-278.61 296.2,-254 305.03,-228.17 324.76,-204.05 340.86,-187.45"/>
<polygon fill="black" stroke="black" points="343.35,-189.91 347.95,-180.37 338.4,-184.95 343.35,-189.91"/>
</g>
<!-- semi&#45;join -->
<g id="node13" class="node">
<title>semi&#45;join</title>
<ellipse fill="none" stroke="black" cx="129.2" cy="-272" rx="44.39" ry="18"/>
<text text-anchor="middle" x="129.2" y="-268.3" font-family="Times,serif" font-size="14.00">semi&#45;join</text>
</g>
<!-- both&#45;&gt;semi&#45;join -->
<g id="edge18" class="edge">
<title>both&#45;&gt;semi&#45;join</title>
<path fill="none" stroke="black" d="M286.31,-334.15C280.2,-331.61 273.5,-329.03 267.2,-327 233.74,-316.23 222.82,-322.08 190.2,-309 179.73,-304.8 168.94,-298.99 159.39,-293.27"/>
<polygon fill="black" stroke="black" points="161.02,-290.16 150.67,-287.85 157.32,-296.1 161.02,-290.16"/>
</g>
<!-- right only&#45;&gt;right join -->
<g id="edge12" class="edge">
<title>right only&#45;&gt;right join</title>
<path fill="none" stroke="black" d="M432.23,-257.09C420.32,-250.69 406.03,-242.99 393.2,-236 361,-218.47 324.4,-198.31 298.43,-183.95"/>
<polygon fill="black" stroke="black" points="299.82,-180.72 289.37,-178.95 296.43,-186.85 299.82,-180.72"/>
</g>
<!-- right only&#45;&gt;full join -->
<g id="edge16" class="edge">
<title>right only&#45;&gt;full join</title>
<path fill="none" stroke="black" d="M443.66,-254.44C428.22,-236.83 403.65,-208.83 386.12,-188.85"/>
<polygon fill="black" stroke="black" points="388.55,-186.31 379.32,-181.1 383.28,-190.92 388.55,-186.31"/>
</g>
<!-- inner join&#45;&gt;full join -->
<!-- keeps columns from -->
<g id="node15" class="node">
<title>keeps columns from</title>
<ellipse fill="none" stroke="black" stroke-dasharray="5,2" cx="338.2" cy="-91" rx="83.39" ry="18"/>
<text text-anchor="middle" x="338.2" y="-87.3" font-family="Times,serif" font-size="14.00">keeps columns from</text>
</g>
<!-- left join&#45;&gt;keeps columns from -->
<g id="edge26" class="edge">
<title>left join&#45;&gt;keeps columns from</title>
<path fill="none" stroke="black" d="M167.15,-200.35C176.37,-184.54 192.08,-161.01 211.2,-146 231.56,-130.01 257.36,-117.89 280.38,-109.24"/>
<polygon fill="black" stroke="black" points="281.84,-112.43 290.05,-105.73 279.46,-105.85 281.84,-112.43"/>
</g>
<!-- fills missing with -->
<g id="node16" class="node">
<title>fills missing with</title>
<ellipse fill="none" stroke="black" stroke-dasharray="5,2" cx="154.2" cy="-91" rx="72.29" ry="18"/>
<text text-anchor="middle" x="154.2" y="-87.3" font-family="Times,serif" font-size="14.00">fills missing with</text>
</g>
<!-- left join&#45;&gt;fills missing with -->
<g id="edge30" class="edge">
<title>left join&#45;&gt;fills missing with</title>
<path fill="none" stroke="black" d="M157.65,-199.88C156.98,-179.15 155.86,-143.95 155.07,-119.42"/>
<polygon fill="black" stroke="black" points="158.57,-119.2 154.75,-109.31 151.57,-119.42 158.57,-119.2"/>
</g>
<!-- right join&#45;&gt;keeps columns from -->
<g id="edge24" class="edge">
<title>right join&#45;&gt;keeps columns from</title>
<path fill="none" stroke="black" d="M280.62,-147.24C290.21,-138.04 302.51,-126.24 313.28,-115.91"/>
<polygon fill="black" stroke="black" points="316,-118.15 320.79,-108.7 311.15,-113.1 316,-118.15"/>
</g>
<!-- right join&#45;&gt;fills missing with -->
<g id="edge28" class="edge">
<title>right join&#45;&gt;fills missing with</title>
<path fill="none" stroke="black" d="M224.58,-156.47C205.45,-151.51 183.41,-142.89 168.2,-128 165.45,-125.31 163.23,-122.02 161.44,-118.52"/>
<polygon fill="black" stroke="black" points="164.62,-117.07 157.63,-109.1 158.13,-119.69 164.62,-117.07"/>
</g>
<!-- full join&#45;&gt;keeps columns from -->
<g id="edge25" class="edge">
<title>full join&#45;&gt;keeps columns from</title>
<path fill="none" stroke="black" d="M358.8,-146.17C355.68,-137.98 351.86,-127.94 348.36,-118.73"/>
<polygon fill="black" stroke="black" points="351.56,-117.3 344.74,-109.2 345.02,-119.79 351.56,-117.3"/>
</g>
<!-- full join&#45;&gt;fills missing with -->
<g id="edge29" class="edge">
<title>full join&#45;&gt;fills missing with</title>
<path fill="none" stroke="black" d="M335.27,-152.3C329.29,-150.19 323.05,-148.01 317.2,-146 280.14,-133.3 238.18,-119.41 206.11,-108.9"/>
<polygon fill="black" stroke="black" points="207.08,-105.53 196.49,-105.75 204.91,-112.19 207.08,-105.53"/>
</g>
<!-- semi&#45;join&#45;&gt;left only -->
<g id="edge19" class="edge">
<title>semi&#45;join&#45;&gt;left only</title>
<path fill="none" stroke="black" d="M134.17,-290.2C140.32,-311.5 151.1,-348.91 160.2,-381 162.33,-388.51 164.62,-396.67 166.72,-404.17"/>
<polygon fill="black" stroke="black" points="163.37,-405.18 169.43,-413.87 170.11,-403.29 163.37,-405.18"/>
<text text-anchor="middle" x="211.2" y="-341.3" font-family="Times,serif" font-size="14.00">keeps columns from</text>
</g>
<!-- anti&#45;join&#45;&gt;left only -->
<g id="edge23" class="edge">
<title>anti&#45;join&#45;&gt;left only</title>
<path fill="none" stroke="black" d="M45.53,-362.91C42.56,-373.45 41.13,-386.71 48.2,-396 57.87,-408.72 95,-418.04 126.47,-423.84"/>
<polygon fill="black" stroke="black" points="125.99,-427.31 136.44,-425.6 127.2,-420.42 125.99,-427.31"/>
<text text-anchor="middle" x="104.2" y="-384.8" font-family="Times,serif" font-size="14.00">keeps columns from</text>
</g>
<!-- keeps columns from&#45;&gt;both -->
<g id="edge27" class="edge">
<title>keeps columns from&#45;&gt;both</title>
<path fill="none" stroke="black" d="M370.91,-107.57C435.18,-140.22 567.05,-218.74 512.2,-290 491.93,-316.33 397.95,-332.46 344.9,-339.62"/>
<polygon fill="black" stroke="black" points="344.33,-336.17 334.87,-340.94 345.24,-343.11 344.33,-336.17"/>
</g>
<!-- NA -->
<g id="node17" class="node">
<title>NA</title>
<ellipse fill="none" stroke="black" cx="154.2" cy="-18" rx="27" ry="18"/>
<text text-anchor="middle" x="154.2" y="-14.3" font-family="Times,serif" font-size="14.00">NA</text>
</g>
<!-- fills missing with&#45;&gt;NA -->
<g id="edge31" class="edge">
<title>fills missing with&#45;&gt;NA</title>
<path fill="none" stroke="black" d="M154.2,-72.81C154.2,-64.79 154.2,-55.05 154.2,-46.07"/>
<polygon fill="black" stroke="black" points="157.7,-46.03 154.2,-36.03 150.7,-46.03 157.7,-46.03"/>
</g>
</g>
</svg>
