<?xml version="1.0" encoding="UTF-8" standalone="no"?>
<!DOCTYPE svg PUBLIC "-//W3C//DTD SVG 1.1//EN"
 "http://www.w3.org/Graphics/SVG/1.1/DTD/svg11.dtd">
<!-- Generated by graphviz version 2.44.1 (20200629.0846)
 -->
<!-- Title: mutate Pages: 1 -->
<svg width="664pt" height="248pt"
 viewBox="0.00 0.00 663.79 248.00" xmlns="http://www.w3.org/2000/svg" xmlns:xlink="http://www.w3.org/1999/xlink">
<g id="graph0" class="graph" transform="scale(1 1) rotate(0) translate(4 244)">
<title>mutate</title>
<polygon fill="white" stroke="transparent" points="-4,4 -4,-244 659.79,-244 659.79,4 -4,4"/>
<!-- mutate -->
<g id="node1" class="node">
<title>mutate</title>
<ellipse fill="none" stroke="black" cx="180.25" cy="-222" rx="35.19" ry="18"/>
<text text-anchor="middle" x="180.25" y="-218.3" font-family="Times,serif" font-size="14.00">mutate</text>
</g>
<!-- dplyr -->
<g id="node2" class="node">
<title>dplyr</title>
<ellipse fill="none" stroke="black" cx="29.25" cy="-135" rx="29.5" ry="18"/>
<text text-anchor="middle" x="29.25" y="-131.3" font-family="Times,serif" font-size="14.00">dplyr</text>
</g>
<!-- mutate&#45;&gt;dplyr -->
<g id="edge1" class="edge">
<title>mutate&#45;&gt;dplyr</title>
<path fill="none" stroke="black" d="M147.49,-215.26C124.94,-210.19 95.06,-201.17 72.25,-186 62.03,-179.2 52.83,-169.33 45.59,-160.15"/>
<polygon fill="black" stroke="black" points="48.3,-157.94 39.51,-152.03 42.7,-162.13 48.3,-157.94"/>
<text text-anchor="middle" x="90.75" y="-174.8" font-family="Times,serif" font-size="14.00">part of</text>
</g>
<!-- names -->
<g id="node3" class="node">
<title>names</title>
<ellipse fill="none" stroke="black" cx="110.25" cy="-135" rx="33.6" ry="18"/>
<text text-anchor="middle" x="110.25" y="-131.3" font-family="Times,serif" font-size="14.00">names</text>
</g>
<!-- mutate&#45;&gt;names -->
<g id="edge2" class="edge">
<title>mutate&#45;&gt;names</title>
<path fill="none" stroke="black" d="M152.17,-211.14C140.24,-205.56 127.27,-197.38 119.25,-186 114.58,-179.38 112.11,-171.08 110.85,-163.16"/>
<polygon fill="black" stroke="black" points="114.32,-162.72 109.82,-153.13 107.36,-163.44 114.32,-162.72"/>
<text text-anchor="middle" x="142.75" y="-174.8" font-family="Times,serif" font-size="14.00">specifies</text>
</g>
<!-- columns -->
<g id="node4" class="node">
<title>columns</title>
<ellipse fill="none" stroke="black" cx="180.25" cy="-18" rx="40.89" ry="18"/>
<text text-anchor="middle" x="180.25" y="-14.3" font-family="Times,serif" font-size="14.00">columns</text>
</g>
<!-- mutate&#45;&gt;columns -->
<g id="edge3" class="edge">
<title>mutate&#45;&gt;columns</title>
<path fill="none" stroke="black" d="M180.25,-203.78C180.25,-168.67 180.25,-88.59 180.25,-46.31"/>
<polygon fill="black" stroke="black" points="183.75,-46.18 180.25,-36.18 176.75,-46.18 183.75,-46.18"/>
<text text-anchor="middle" x="200.25" y="-131.3" font-family="Times,serif" font-size="14.00">adds to</text>
</g>
<!-- dataframe -->
<g id="node5" class="node">
<title>dataframe</title>
<ellipse fill="none" stroke="black" cx="284.25" cy="-135" rx="46.29" ry="18"/>
<text text-anchor="middle" x="284.25" y="-131.3" font-family="Times,serif" font-size="14.00">dataframe</text>
</g>
<!-- mutate&#45;&gt;dataframe -->
<g id="edge4" class="edge">
<title>mutate&#45;&gt;dataframe</title>
<path fill="none" stroke="black" d="M198.36,-206.19C214.69,-192.85 238.9,-173.06 257.46,-157.89"/>
<polygon fill="black" stroke="black" points="259.76,-160.54 265.29,-151.5 255.33,-155.12 259.76,-160.54"/>
<text text-anchor="middle" x="258.75" y="-174.8" font-family="Times,serif" font-size="14.00">acts on</text>
</g>
<!-- expression -->
<g id="node6" class="node">
<title>expression</title>
<ellipse fill="none" stroke="black" cx="429.25" cy="-135" rx="48.19" ry="18"/>
<text text-anchor="middle" x="429.25" y="-131.3" font-family="Times,serif" font-size="14.00">expression</text>
</g>
<!-- mutate&#45;&gt;expression -->
<g id="edge5" class="edge">
<title>mutate&#45;&gt;expression</title>
<path fill="none" stroke="black" d="M208.81,-211.25C252.04,-196.49 334.44,-168.36 385.33,-150.99"/>
<polygon fill="black" stroke="black" points="386.74,-154.21 395.07,-147.67 384.48,-147.59 386.74,-154.21"/>
<text text-anchor="middle" x="328.75" y="-174.8" font-family="Times,serif" font-size="14.00">has</text>
</g>
<!-- names&#45;&gt;columns -->
<g id="edge6" class="edge">
<title>names&#45;&gt;columns</title>
<path fill="none" stroke="black" d="M109.08,-116.9C108.74,-99.61 110.63,-72.82 123.25,-54 128.08,-46.79 134.95,-40.81 142.26,-35.95"/>
<polygon fill="black" stroke="black" points="144.15,-38.89 150.94,-30.76 140.56,-32.89 144.15,-38.89"/>
<text text-anchor="middle" x="144.75" y="-72.8" font-family="Times,serif" font-size="14.00">for new</text>
</g>
<!-- dataframe&#45;&gt;columns -->
<g id="edge7" class="edge">
<title>dataframe&#45;&gt;columns</title>
<path fill="none" stroke="black" d="M262.64,-119.09C254.87,-113.25 246.29,-106.23 239.25,-99 222.88,-82.21 207.27,-60.71 196.22,-44.23"/>
<polygon fill="black" stroke="black" points="199,-42.08 190.58,-35.65 193.15,-45.93 199,-42.08"/>
<text text-anchor="middle" x="248.75" y="-72.8" font-family="Times,serif" font-size="14.00">has</text>
</g>
<!-- rows -->
<g id="node7" class="node">
<title>rows</title>
<ellipse fill="none" stroke="black" cx="307.25" cy="-18" rx="27.9" ry="18"/>
<text text-anchor="middle" x="307.25" y="-14.3" font-family="Times,serif" font-size="14.00">rows</text>
</g>
<!-- dataframe&#45;&gt;rows -->
<g id="edge8" class="edge">
<title>dataframe&#45;&gt;rows</title>
<path fill="none" stroke="black" d="M273.56,-117.19C270.59,-111.62 267.76,-105.24 266.25,-99 261.54,-79.56 257.87,-72.16 266.25,-54 269.2,-47.6 273.95,-41.94 279.2,-37.14"/>
<polygon fill="black" stroke="black" points="281.54,-39.75 287.09,-30.73 277.12,-34.32 281.54,-39.75"/>
<text text-anchor="middle" x="275.75" y="-72.8" font-family="Times,serif" font-size="14.00">has</text>
</g>
<!-- expression&#45;&gt;rows -->
<g id="edge9" class="edge">
<title>expression&#45;&gt;rows</title>
<path fill="none" stroke="black" d="M385.83,-127.02C355.14,-121.1 317.82,-111.57 308.25,-99 296.89,-84.08 297.23,-62.66 300.09,-45.73"/>
<polygon fill="black" stroke="black" points="303.53,-46.37 302.12,-35.87 296.68,-44.96 303.53,-46.37"/>
<text text-anchor="middle" x="339.25" y="-80.3" font-family="Times,serif" font-size="14.00">uses values</text>
<text text-anchor="middle" x="339.25" y="-65.3" font-family="Times,serif" font-size="14.00">from</text>
</g>
<!-- expression&#45;&gt;rows -->
<g id="edge10" class="edge">
<title>expression&#45;&gt;rows</title>
<path fill="none" stroke="black" d="M407.98,-118.49C401.36,-112.9 394.44,-106.18 389.25,-99 376.53,-81.4 384.75,-70.15 370.25,-54 362.04,-44.85 350.85,-37.57 340.18,-32.08"/>
<polygon fill="black" stroke="black" points="341.56,-28.85 331.03,-27.7 338.54,-35.17 341.56,-28.85"/>
<text text-anchor="middle" x="416.75" y="-87.8" font-family="Times,serif" font-size="14.00">works</text>
<text text-anchor="middle" x="416.75" y="-72.8" font-family="Times,serif" font-size="14.00">separately</text>
<text text-anchor="middle" x="416.75" y="-57.8" font-family="Times,serif" font-size="14.00">on each</text>
</g>
<!-- arithmetic -->
<g id="node8" class="node">
<title>arithmetic</title>
<ellipse fill="none" stroke="black" cx="431.25" cy="-18" rx="46.59" ry="18"/>
<text text-anchor="middle" x="431.25" y="-14.3" font-family="Times,serif" font-size="14.00">arithmetic</text>
</g>
<!-- expression&#45;&gt;arithmetic -->
<g id="edge11" class="edge">
<title>expression&#45;&gt;arithmetic</title>
<path fill="none" stroke="black" d="M440.52,-117.26C443.66,-111.69 446.65,-105.3 448.25,-99 453.17,-79.62 452.73,-73.49 448.25,-54 447.58,-51.1 446.64,-48.16 445.54,-45.28"/>
<polygon fill="black" stroke="black" points="448.61,-43.58 441.34,-35.87 442.22,-46.43 448.61,-43.58"/>
</g>
<!-- rank -->
<g id="node9" class="node">
<title>rank</title>
<ellipse fill="none" stroke="black" cx="523.25" cy="-18" rx="27" ry="18"/>
<text text-anchor="middle" x="523.25" y="-14.3" font-family="Times,serif" font-size="14.00">rank</text>
</g>
<!-- expression&#45;&gt;rank -->
<g id="edge12" class="edge">
<title>expression&#45;&gt;rank</title>
<path fill="none" stroke="black" d="M445.61,-118.02C451.35,-112.19 457.74,-105.44 463.25,-99 478.67,-80.96 494.72,-59.38 506.34,-43.18"/>
<polygon fill="black" stroke="black" points="509.37,-44.97 512.31,-34.79 503.66,-40.91 509.37,-44.97"/>
</g>
<!-- lead / lag -->
<g id="node10" class="node">
<title>lead / lag</title>
<ellipse fill="none" stroke="black" cx="612.25" cy="-18" rx="43.59" ry="18"/>
<text text-anchor="middle" x="612.25" y="-14.3" font-family="Times,serif" font-size="14.00">lead / lag</text>
</g>
<!-- expression&#45;&gt;lead / lag -->
<g id="edge13" class="edge">
<title>expression&#45;&gt;lead / lag</title>
<path fill="none" stroke="black" d="M456.47,-120.13C468.24,-113.93 482.08,-106.37 494.25,-99 525.35,-80.15 559.63,-56.58 583.19,-39.92"/>
<polygon fill="black" stroke="black" points="585.23,-42.76 591.36,-34.12 581.18,-37.05 585.23,-42.76"/>
</g>
</g>
</svg>
