<?xml version="1.0" encoding="UTF-8" standalone="no"?>
<!DOCTYPE svg PUBLIC "-//W3C//DTD SVG 1.1//EN"
 "http://www.w3.org/Graphics/SVG/1.1/DTD/svg11.dtd">
<!-- Generated by graphviz version 2.44.1 (20200629.0846)
 -->
<!-- Title: pivoting Pages: 1 -->
<svg width="568pt" height="355pt"
 viewBox="0.00 0.00 567.88 355.48" xmlns="http://www.w3.org/2000/svg" xmlns:xlink="http://www.w3.org/1999/xlink">
<g id="graph0" class="graph" transform="scale(1 1) rotate(0) translate(4 351.48)">
<title>pivoting</title>
<polygon fill="white" stroke="transparent" points="-4,4 -4,-351.48 563.88,-351.48 563.88,4 -4,4"/>
<!-- pivot_longer -->
<g id="node1" class="node">
<title>pivot_longer</title>
<ellipse fill="none" stroke="black" cx="113.64" cy="-122.74" rx="55.79" ry="18"/>
<text text-anchor="middle" x="113.64" y="-119.04" font-family="Times,serif" font-size="14.00">pivot_longer</text>
</g>
<!-- dplyr -->
<g id="node2" class="node">
<title>dplyr</title>
<ellipse fill="none" stroke="black" cx="176.64" cy="-26.87" rx="29.5" ry="18"/>
<text text-anchor="middle" x="176.64" y="-23.17" font-family="Times,serif" font-size="14.00">dplyr</text>
</g>
<!-- pivot_longer&#45;&gt;dplyr -->
<g id="edge1" class="edge">
<title>pivot_longer&#45;&gt;dplyr</title>
<path fill="none" stroke="black" d="M106.14,-104.53C102.92,-94.39 101.03,-81.66 106.64,-71.74 114.3,-58.21 123.44,-61.96 136.64,-53.74 140.54,-51.31 144.62,-48.72 148.63,-46.15"/>
<polygon fill="black" stroke="black" points="150.68,-48.99 157.19,-40.63 146.89,-43.11 150.68,-48.99"/>
<text text-anchor="middle" x="125.14" y="-75.54" font-family="Times,serif" font-size="14.00">part of</text>
</g>
<!-- transform\nnames/values -->
<g id="node7" class="node">
<title>transform\nnames/values</title>
<ellipse fill="none" stroke="black" cx="63.64" cy="-26.87" rx="63.78" ry="26.74"/>
<text text-anchor="middle" x="63.64" y="-30.67" font-family="Times,serif" font-size="14.00">transform</text>
<text text-anchor="middle" x="63.64" y="-15.67" font-family="Times,serif" font-size="14.00">names/values</text>
</g>
<!-- pivot_longer&#45;&gt;transform\nnames/values -->
<g id="edge5" class="edge">
<title>pivot_longer&#45;&gt;transform\nnames/values</title>
<path fill="none" stroke="black" d="M84.33,-107.36C76.54,-102.02 69.06,-95.16 64.64,-86.74 61,-79.82 59.45,-71.78 59.06,-63.91"/>
<polygon fill="black" stroke="black" points="62.56,-63.79 59.14,-53.76 55.56,-63.73 62.56,-63.79"/>
<text text-anchor="middle" x="74.14" y="-75.54" font-family="Times,serif" font-size="14.00">can</text>
</g>
<!-- number of\ncolumns -->
<g id="node11" class="node">
<title>number of\ncolumns</title>
<ellipse fill="none" stroke="black" cx="284.64" cy="-26.87" rx="52.15" ry="26.74"/>
<text text-anchor="middle" x="284.64" y="-30.67" font-family="Times,serif" font-size="14.00">number of</text>
<text text-anchor="middle" x="284.64" y="-15.67" font-family="Times,serif" font-size="14.00">columns</text>
</g>
<!-- pivot_longer&#45;&gt;number of\ncolumns -->
<g id="edge9" class="edge">
<title>pivot_longer&#45;&gt;number of\ncolumns</title>
<path fill="none" stroke="black" d="M128.03,-105.07C137.98,-94.37 152.03,-80.82 166.64,-71.74 167.44,-71.24 201.77,-58.5 233.19,-46.87"/>
<polygon fill="black" stroke="black" points="234.64,-50.07 242.81,-43.31 232.21,-43.5 234.64,-50.07"/>
<text text-anchor="middle" x="192.64" y="-75.54" font-family="Times,serif" font-size="14.00">decreases</text>
</g>
<!-- number of\nrows -->
<g id="node12" class="node">
<title>number of\nrows</title>
<ellipse fill="none" stroke="black" cx="411.64" cy="-26.87" rx="52.15" ry="26.74"/>
<text text-anchor="middle" x="411.64" y="-30.67" font-family="Times,serif" font-size="14.00">number of</text>
<text text-anchor="middle" x="411.64" y="-15.67" font-family="Times,serif" font-size="14.00">rows</text>
</g>
<!-- pivot_longer&#45;&gt;number of\nrows -->
<g id="edge10" class="edge">
<title>pivot_longer&#45;&gt;number of\nrows</title>
<path fill="none" stroke="black" d="M166.51,-116.77C199.9,-112.15 243.25,-103.34 278.64,-86.74 288.38,-82.17 288.27,-77.03 297.64,-71.74 317.48,-60.55 324.37,-61.9 345.64,-53.74 350.74,-51.78 356.05,-49.73 361.36,-47.67"/>
<polygon fill="black" stroke="black" points="362.79,-50.87 370.84,-43.97 360.25,-44.34 362.79,-50.87"/>
<text text-anchor="middle" x="322.64" y="-75.54" font-family="Times,serif" font-size="14.00">increases</text>
</g>
<!-- pivot_wider -->
<g id="node3" class="node">
<title>pivot_wider</title>
<ellipse fill="none" stroke="black" cx="389.64" cy="-122.74" rx="53.09" ry="18"/>
<text text-anchor="middle" x="389.64" y="-119.04" font-family="Times,serif" font-size="14.00">pivot_wider</text>
</g>
<!-- pivot_wider&#45;&gt;dplyr -->
<g id="edge2" class="edge">
<title>pivot_wider&#45;&gt;dplyr</title>
<path fill="none" stroke="black" d="M339.8,-116.31C310,-111.56 272.14,-102.78 241.64,-86.74 224.45,-77.7 208.26,-63.06 196.33,-50.64"/>
<polygon fill="black" stroke="black" points="198.86,-48.21 189.49,-43.26 193.73,-52.97 198.86,-48.21"/>
<text text-anchor="middle" x="260.14" y="-75.54" font-family="Times,serif" font-size="14.00">part of</text>
</g>
<!-- format\nnames -->
<g id="node8" class="node">
<title>format\nnames</title>
<ellipse fill="none" stroke="black" cx="521.64" cy="-26.87" rx="37.45" ry="26.74"/>
<text text-anchor="middle" x="521.64" y="-30.67" font-family="Times,serif" font-size="14.00">format</text>
<text text-anchor="middle" x="521.64" y="-15.67" font-family="Times,serif" font-size="14.00">names</text>
</g>
<!-- pivot_wider&#45;&gt;format\nnames -->
<g id="edge6" class="edge">
<title>pivot_wider&#45;&gt;format\nnames</title>
<path fill="none" stroke="black" d="M432.34,-111.81C449.24,-106.39 468.07,-98.35 482.64,-86.74 491.29,-79.85 498.68,-70.51 504.63,-61.3"/>
<polygon fill="black" stroke="black" points="507.72,-62.96 509.89,-52.59 501.72,-59.34 507.72,-62.96"/>
<text text-anchor="middle" x="505.14" y="-75.54" font-family="Times,serif" font-size="14.00">can</text>
</g>
<!-- pivot_wider&#45;&gt;number of\ncolumns -->
<g id="edge11" class="edge">
<title>pivot_wider&#45;&gt;number of\ncolumns</title>
<path fill="none" stroke="black" d="M378.94,-104.82C371.94,-94.54 362.17,-81.55 351.64,-71.74 344.32,-64.91 335.81,-58.46 327.37,-52.7"/>
<polygon fill="black" stroke="black" points="329.28,-49.77 319,-47.19 325.43,-55.61 329.28,-49.77"/>
<text text-anchor="middle" x="388.64" y="-75.54" font-family="Times,serif" font-size="14.00">increases</text>
</g>
<!-- pivot_wider&#45;&gt;number of\nrows -->
<g id="edge12" class="edge">
<title>pivot_wider&#45;&gt;number of\nrows</title>
<path fill="none" stroke="black" d="M410.6,-106.04C416.24,-100.62 421.61,-94.04 424.64,-86.74 427.74,-79.26 427.78,-70.93 426.32,-62.94"/>
<polygon fill="black" stroke="black" points="429.67,-61.91 423.8,-53.09 422.89,-63.65 429.67,-61.91"/>
<text text-anchor="middle" x="452.64" y="-75.54" font-family="Times,serif" font-size="14.00">decreases</text>
</g>
<!-- dataframe -->
<g id="node4" class="node">
<title>dataframe</title>
<ellipse fill="none" stroke="black" cx="272.64" cy="-329.48" rx="46.29" ry="18"/>
<text text-anchor="middle" x="272.64" y="-325.78" font-family="Times,serif" font-size="14.00">dataframe</text>
</g>
<!-- values in\ncolumn names -->
<g id="node5" class="node">
<title>values in\ncolumn names</title>
<ellipse fill="none" stroke="black" cx="76.64" cy="-218.61" rx="68.68" ry="26.74"/>
<text text-anchor="middle" x="76.64" y="-222.41" font-family="Times,serif" font-size="14.00">values in</text>
<text text-anchor="middle" x="76.64" y="-207.41" font-family="Times,serif" font-size="14.00">column names</text>
</g>
<!-- dataframe&#45;&gt;values in\ncolumn names -->
<g id="edge3" class="edge">
<title>dataframe&#45;&gt;values in\ncolumn names</title>
<path fill="none" stroke="black" d="M239.66,-316.64C223.62,-310.45 204.27,-302.32 187.64,-293.48 162.85,-280.29 136.64,-263.02 115.91,-248.49"/>
<polygon fill="black" stroke="black" points="117.86,-245.58 107.67,-242.66 113.81,-251.3 117.86,-245.58"/>
<text text-anchor="middle" x="212.14" y="-274.78" font-family="Times,serif" font-size="14.00">can have</text>
</g>
<!-- variable names\nin a column -->
<g id="node6" class="node">
<title>variable names\nin a column</title>
<ellipse fill="none" stroke="black" cx="361.64" cy="-218.61" rx="70.01" ry="26.74"/>
<text text-anchor="middle" x="361.64" y="-222.41" font-family="Times,serif" font-size="14.00">variable names</text>
<text text-anchor="middle" x="361.64" y="-207.41" font-family="Times,serif" font-size="14.00">in a column</text>
</g>
<!-- dataframe&#45;&gt;variable names\nin a column -->
<g id="edge4" class="edge">
<title>dataframe&#45;&gt;variable names\nin a column</title>
<path fill="none" stroke="black" d="M292.33,-313.07C299.13,-307.28 306.56,-300.42 312.64,-293.48 323.26,-281.34 333.4,-266.76 341.67,-253.77"/>
<polygon fill="black" stroke="black" points="344.76,-255.42 347.08,-245.08 338.82,-251.72 344.76,-255.42"/>
<text text-anchor="middle" x="359.14" y="-274.78" font-family="Times,serif" font-size="14.00">can have</text>
</g>
<!-- wide to long -->
<g id="node9" class="node">
<title>wide to long</title>
<ellipse fill="none" stroke="black" cx="218.64" cy="-218.61" rx="55.49" ry="18"/>
<text text-anchor="middle" x="218.64" y="-214.91" font-family="Times,serif" font-size="14.00">wide to long</text>
</g>
<!-- dataframe&#45;&gt;wide to long -->
<g id="edge7" class="edge">
<title>dataframe&#45;&gt;wide to long</title>
<path fill="none" stroke="black" d="M264.2,-311.47C255.44,-293.81 241.64,-265.97 231.51,-245.57"/>
<polygon fill="black" stroke="black" points="234.6,-243.9 227.02,-236.5 228.33,-247.02 234.6,-243.9"/>
<text text-anchor="middle" x="281.64" y="-282.28" font-family="Times,serif" font-size="14.00">transform</text>
<text text-anchor="middle" x="281.64" y="-267.28" font-family="Times,serif" font-size="14.00">from</text>
</g>
<!-- long to wide -->
<g id="node10" class="node">
<title>long to wide</title>
<ellipse fill="none" stroke="black" cx="504.64" cy="-218.61" rx="55.49" ry="18"/>
<text text-anchor="middle" x="504.64" y="-214.91" font-family="Times,serif" font-size="14.00">long to wide</text>
</g>
<!-- dataframe&#45;&gt;long to wide -->
<g id="edge8" class="edge">
<title>dataframe&#45;&gt;long to wide</title>
<path fill="none" stroke="black" d="M311.13,-319.53C333.93,-313.55 363.07,-304.73 387.64,-293.48 419.21,-279.03 452.43,-257.35 475.37,-241.21"/>
<polygon fill="black" stroke="black" points="477.52,-243.97 483.63,-235.32 473.46,-238.27 477.52,-243.97"/>
<text text-anchor="middle" x="467.64" y="-282.28" font-family="Times,serif" font-size="14.00">transform</text>
<text text-anchor="middle" x="467.64" y="-267.28" font-family="Times,serif" font-size="14.00">from</text>
</g>
<!-- values in\ncolumn names&#45;&gt;pivot_longer -->
<g id="edge13" class="edge">
<title>values in\ncolumn names&#45;&gt;pivot_longer</title>
<path fill="none" stroke="black" d="M86.75,-191.96C91.87,-178.98 98.07,-163.25 103.22,-150.17"/>
<polygon fill="black" stroke="black" points="106.52,-151.35 106.93,-140.77 100.01,-148.79 106.52,-151.35"/>
<text text-anchor="middle" x="122.14" y="-162.54" font-family="Times,serif" font-size="14.00">fixed by</text>
</g>
<!-- variable names\nin a column&#45;&gt;pivot_wider -->
<g id="edge14" class="edge">
<title>variable names\nin a column&#45;&gt;pivot_wider</title>
<path fill="none" stroke="black" d="M369.36,-191.71C373.2,-178.87 377.82,-163.37 381.68,-150.42"/>
<polygon fill="black" stroke="black" points="385.08,-151.26 384.59,-140.68 378.38,-149.26 385.08,-151.26"/>
<text text-anchor="middle" x="401.14" y="-162.54" font-family="Times,serif" font-size="14.00">fixed by</text>
</g>
<!-- wide to long&#45;&gt;pivot_longer -->
<g id="edge15" class="edge">
<title>wide to long&#45;&gt;pivot_longer</title>
<path fill="none" stroke="black" d="M200.35,-201.26C183.49,-186.18 158.28,-163.65 139.39,-146.76"/>
<polygon fill="black" stroke="black" points="141.51,-143.96 131.72,-139.9 136.84,-149.18 141.51,-143.96"/>
<text text-anchor="middle" x="184.64" y="-162.54" font-family="Times,serif" font-size="14.00">using</text>
</g>
<!-- long to wide&#45;&gt;pivot_wider -->
<g id="edge16" class="edge">
<title>long to wide&#45;&gt;pivot_wider</title>
<path fill="none" stroke="black" d="M485.13,-201.69C466.46,-186.45 438.12,-163.31 417.16,-146.2"/>
<polygon fill="black" stroke="black" points="419.2,-143.35 409.24,-139.74 414.78,-148.78 419.2,-143.35"/>
<text text-anchor="middle" x="464.64" y="-162.54" font-family="Times,serif" font-size="14.00">using</text>
</g>
</g>
</svg>
