<?xml version="1.0" encoding="UTF-8" standalone="no"?>
<!DOCTYPE svg PUBLIC "-//W3C//DTD SVG 1.1//EN"
 "http://www.w3.org/Graphics/SVG/1.1/DTD/svg11.dtd">
<!-- Generated by graphviz version 2.44.1 (20200629.0846)
 -->
<!-- Title: regex Pages: 1 -->
<svg width="1244pt" height="399pt"
 viewBox="0.00 0.00 1244.29 399.48" xmlns="http://www.w3.org/2000/svg" xmlns:xlink="http://www.w3.org/1999/xlink">
<g id="graph0" class="graph" transform="scale(1 1) rotate(0) translate(4 395.48)">
<title>regex</title>
<polygon fill="white" stroke="transparent" points="-4,4 -4,-395.48 1240.29,-395.48 1240.29,4 -4,4"/>
<!-- regular\nexpressions -->
<g id="node1" class="node">
<title>regular\nexpressions</title>
<ellipse fill="none" stroke="black" cx="231.55" cy="-364.61" rx="56.64" ry="26.74"/>
<text text-anchor="middle" x="231.55" y="-368.41" font-family="Times,serif" font-size="14.00">regular</text>
<text text-anchor="middle" x="231.55" y="-353.41" font-family="Times,serif" font-size="14.00">expressions</text>
</g>
<!-- also called -->
<g id="node2" class="node">
<title>also called</title>
<ellipse fill="none" stroke="black" cx="68.55" cy="-259.87" rx="48.19" ry="18"/>
<text text-anchor="middle" x="68.55" y="-256.17" font-family="Times,serif" font-size="14.00">also called</text>
</g>
<!-- regular\nexpressions&#45;&gt;also called -->
<g id="edge1" class="edge">
<title>regular\nexpressions&#45;&gt;also called</title>
<path fill="none" stroke="black" d="M198.17,-342.57C169.76,-324.67 129.2,-299.1 101.05,-281.36"/>
<polygon fill="black" stroke="black" points="102.7,-278.26 92.38,-275.89 98.97,-284.18 102.7,-278.26"/>
</g>
<!-- character\nstrings -->
<g id="node5" class="node">
<title>character\nstrings</title>
<ellipse fill="none" stroke="black" cx="181.55" cy="-259.87" rx="46.84" ry="26.74"/>
<text text-anchor="middle" x="181.55" y="-263.67" font-family="Times,serif" font-size="14.00">character</text>
<text text-anchor="middle" x="181.55" y="-248.67" font-family="Times,serif" font-size="14.00">strings</text>
</g>
<!-- regular\nexpressions&#45;&gt;character\nstrings -->
<g id="edge4" class="edge">
<title>regular\nexpressions&#45;&gt;character\nstrings</title>
<path fill="none" stroke="black" d="M219.19,-338.21C212.89,-325.27 205.14,-309.35 198.31,-295.32"/>
<polygon fill="black" stroke="black" points="201.29,-293.43 193.76,-285.97 194.99,-296.5 201.29,-293.43"/>
<text text-anchor="middle" x="218.05" y="-308.54" font-family="Times,serif" font-size="14.00">are</text>
</g>
<!-- can -->
<g id="node6" class="node">
<title>can</title>
<ellipse fill="none" stroke="black" cx="349.55" cy="-259.87" rx="27" ry="18"/>
<text text-anchor="middle" x="349.55" y="-256.17" font-family="Times,serif" font-size="14.00">can</text>
</g>
<!-- regular\nexpressions&#45;&gt;can -->
<g id="edge6" class="edge">
<title>regular\nexpressions&#45;&gt;can</title>
<path fill="none" stroke="black" d="M258.03,-340.55C278.45,-322.77 306.44,-298.4 326.07,-281.31"/>
<polygon fill="black" stroke="black" points="328.42,-283.9 333.66,-274.7 323.82,-278.63 328.42,-283.9"/>
</g>
<!-- contain -->
<g id="node10" class="node">
<title>contain</title>
<ellipse fill="none" stroke="black" cx="545.55" cy="-259.87" rx="36.29" ry="18"/>
<text text-anchor="middle" x="545.55" y="-256.17" font-family="Times,serif" font-size="14.00">contain</text>
</g>
<!-- regular\nexpressions&#45;&gt;contain -->
<g id="edge10" class="edge">
<title>regular\nexpressions&#45;&gt;contain</title>
<path fill="none" stroke="black" d="M277.21,-348.67C338.95,-328.47 448.03,-292.78 506.28,-273.72"/>
<polygon fill="black" stroke="black" points="507.45,-277.02 515.87,-270.58 505.27,-270.37 507.45,-277.02"/>
</g>
<!-- regex -->
<g id="node3" class="node">
<title>regex</title>
<ellipse fill="none" stroke="black" cx="30.55" cy="-178" rx="30.59" ry="18"/>
<text text-anchor="middle" x="30.55" y="-174.3" font-family="Times,serif" font-size="14.00">regex</text>
</g>
<!-- also called&#45;&gt;regex -->
<g id="edge2" class="edge">
<title>also called&#45;&gt;regex</title>
<path fill="none" stroke="black" d="M60.49,-241.93C55.37,-231.16 48.63,-217.01 42.85,-204.86"/>
<polygon fill="black" stroke="black" points="45.92,-203.17 38.46,-195.64 39.6,-206.17 45.92,-203.17"/>
</g>
<!-- RE -->
<g id="node4" class="node">
<title>RE</title>
<ellipse fill="none" stroke="black" cx="106.55" cy="-178" rx="27" ry="18"/>
<text text-anchor="middle" x="106.55" y="-174.3" font-family="Times,serif" font-size="14.00">RE</text>
</g>
<!-- also called&#45;&gt;RE -->
<g id="edge3" class="edge">
<title>also called&#45;&gt;RE</title>
<path fill="none" stroke="black" d="M76.61,-241.93C81.76,-231.09 88.55,-216.82 94.36,-204.61"/>
<polygon fill="black" stroke="black" points="97.62,-205.9 98.76,-195.37 91.3,-202.89 97.62,-205.9"/>
</g>
<!-- character\nstrings&#45;&gt;character\nstrings -->
<g id="edge5" class="edge">
<title>character\nstrings&#45;&gt;character\nstrings</title>
<path fill="none" stroke="black" d="M226.28,-268.02C237.67,-267.49 246.22,-264.77 246.22,-259.87 246.22,-256.58 242.36,-254.27 236.37,-252.95"/>
<polygon fill="black" stroke="black" points="236.63,-249.46 226.28,-251.72 235.78,-256.4 236.63,-249.46"/>
<text text-anchor="middle" x="275.22" y="-256.17" font-family="Times,serif" font-size="14.00">that match</text>
</g>
<!-- match -->
<g id="node7" class="node">
<title>match</title>
<ellipse fill="none" stroke="black" cx="264.55" cy="-178" rx="32.49" ry="18"/>
<text text-anchor="middle" x="264.55" y="-174.3" font-family="Times,serif" font-size="14.00">match</text>
</g>
<!-- can&#45;&gt;match -->
<g id="edge7" class="edge">
<title>can&#45;&gt;match</title>
<path fill="none" stroke="black" d="M334.35,-244.59C321.42,-232.44 302.64,-214.79 287.82,-200.87"/>
<polygon fill="black" stroke="black" points="290.16,-198.27 280.48,-193.97 285.37,-203.37 290.16,-198.27"/>
</g>
<!-- extract -->
<g id="node8" class="node">
<title>extract</title>
<ellipse fill="none" stroke="black" cx="349.55" cy="-178" rx="34.39" ry="18"/>
<text text-anchor="middle" x="349.55" y="-174.3" font-family="Times,serif" font-size="14.00">extract</text>
</g>
<!-- can&#45;&gt;extract -->
<g id="edge8" class="edge">
<title>can&#45;&gt;extract</title>
<path fill="none" stroke="black" d="M349.55,-241.54C349.55,-231.21 349.55,-217.88 349.55,-206.18"/>
<polygon fill="black" stroke="black" points="353.05,-206.02 349.55,-196.02 346.05,-206.02 353.05,-206.02"/>
</g>
<!-- groups -->
<g id="node9" class="node">
<title>groups</title>
<ellipse fill="none" stroke="black" cx="342.55" cy="-91" rx="34.39" ry="18"/>
<text text-anchor="middle" x="342.55" y="-87.3" font-family="Times,serif" font-size="14.00">groups</text>
</g>
<!-- extract&#45;&gt;groups -->
<g id="edge9" class="edge">
<title>extract&#45;&gt;groups</title>
<path fill="none" stroke="black" d="M348.13,-159.8C347.17,-148.16 345.89,-132.55 344.79,-119.24"/>
<polygon fill="black" stroke="black" points="348.27,-118.85 343.96,-109.18 341.29,-119.43 348.27,-118.85"/>
<text text-anchor="middle" x="355.05" y="-130.8" font-family="Times,serif" font-size="14.00">via</text>
</g>
<!-- (...) -->
<g id="node27" class="node">
<title>(...)</title>
<ellipse fill="none" stroke="black" cx="342.55" cy="-18" rx="27" ry="18"/>
<text text-anchor="middle" x="342.55" y="-14.3" font-family="Times,serif" font-size="14.00">(...)</text>
</g>
<!-- groups&#45;&gt;(...) -->
<g id="edge28" class="edge">
<title>groups&#45;&gt;(...)</title>
<path fill="none" stroke="black" d="M342.55,-72.81C342.55,-64.79 342.55,-55.05 342.55,-46.07"/>
<polygon fill="black" stroke="black" points="346.05,-46.03 342.55,-36.03 339.05,-46.03 346.05,-46.03"/>
</g>
<!-- contain&#45;&gt;groups -->
<g id="edge18" class="edge">
<title>contain&#45;&gt;groups</title>
<path fill="none" stroke="black" d="M521.08,-246.27C499.45,-234.61 467.54,-216.07 442.55,-196 411.93,-171.42 381.32,-137.95 362.18,-115.69"/>
<polygon fill="black" stroke="black" points="364.81,-113.39 355.67,-108.04 359.48,-117.92 364.81,-113.39"/>
</g>
<!-- plain text -->
<g id="node11" class="node">
<title>plain text</title>
<ellipse fill="none" stroke="black" cx="495.55" cy="-178" rx="44.39" ry="18"/>
<text text-anchor="middle" x="495.55" y="-174.3" font-family="Times,serif" font-size="14.00">plain text</text>
</g>
<!-- contain&#45;&gt;plain text -->
<g id="edge11" class="edge">
<title>contain&#45;&gt;plain text</title>
<path fill="none" stroke="black" d="M535.19,-242.32C528.28,-231.29 519.08,-216.58 511.27,-204.12"/>
<polygon fill="black" stroke="black" points="514.17,-202.15 505.89,-195.53 508.23,-205.86 514.17,-202.15"/>
</g>
<!-- repeat -->
<g id="node13" class="node">
<title>repeat</title>
<ellipse fill="none" stroke="black" cx="596.55" cy="-178" rx="32.49" ry="18"/>
<text text-anchor="middle" x="596.55" y="-174.3" font-family="Times,serif" font-size="14.00">repeat</text>
</g>
<!-- contain&#45;&gt;repeat -->
<g id="edge13" class="edge">
<title>contain&#45;&gt;repeat</title>
<path fill="none" stroke="black" d="M556.11,-242.32C563.2,-231.22 572.67,-216.39 580.66,-203.87"/>
<polygon fill="black" stroke="black" points="583.74,-205.57 586.17,-195.25 577.84,-201.8 583.74,-205.57"/>
</g>
<!-- character set -->
<g id="node17" class="node">
<title>character set</title>
<ellipse fill="none" stroke="black" cx="834.55" cy="-178" rx="55.49" ry="18"/>
<text text-anchor="middle" x="834.55" y="-174.3" font-family="Times,serif" font-size="14.00">character set</text>
</g>
<!-- contain&#45;&gt;character set -->
<g id="edge17" class="edge">
<title>contain&#45;&gt;character set</title>
<path fill="none" stroke="black" d="M576.48,-250.32C626.03,-236.63 723.72,-209.63 783.67,-193.06"/>
<polygon fill="black" stroke="black" points="784.97,-196.33 793.68,-190.3 783.11,-189.59 784.97,-196.33"/>
</g>
<!-- markers -->
<g id="node28" class="node">
<title>markers</title>
<ellipse fill="none" stroke="black" cx="1069.55" cy="-178" rx="39.79" ry="18"/>
<text text-anchor="middle" x="1069.55" y="-174.3" font-family="Times,serif" font-size="14.00">markers</text>
</g>
<!-- contain&#45;&gt;markers -->
<g id="edge29" class="edge">
<title>contain&#45;&gt;markers</title>
<path fill="none" stroke="black" d="M579.93,-253.63C671.04,-239.74 918.83,-201.97 1022.72,-186.14"/>
<polygon fill="black" stroke="black" points="1023.25,-189.6 1032.61,-184.63 1022.2,-182.68 1023.25,-189.6"/>
</g>
<!-- matches itself -->
<g id="node12" class="node">
<title>matches itself</title>
<ellipse fill="none" stroke="black" cx="454.55" cy="-91" rx="59.59" ry="18"/>
<text text-anchor="middle" x="454.55" y="-87.3" font-family="Times,serif" font-size="14.00">matches itself</text>
</g>
<!-- plain text&#45;&gt;matches itself -->
<g id="edge12" class="edge">
<title>plain text&#45;&gt;matches itself</title>
<path fill="none" stroke="black" d="M487.45,-160.21C481.7,-148.29 473.87,-132.06 467.29,-118.42"/>
<polygon fill="black" stroke="black" points="470.27,-116.54 462.77,-109.05 463.96,-119.58 470.27,-116.54"/>
</g>
<!-- + -->
<g id="node14" class="node">
<title>+</title>
<ellipse fill="none" stroke="black" cx="559.55" cy="-91" rx="27" ry="18"/>
<text text-anchor="middle" x="559.55" y="-87.3" font-family="Times,serif" font-size="14.00">+</text>
</g>
<!-- repeat&#45;&gt;+ -->
<g id="edge14" class="edge">
<title>repeat&#45;&gt;+</title>
<path fill="none" stroke="black" d="M589.24,-160.21C583.98,-148.14 576.8,-131.64 570.82,-117.89"/>
<polygon fill="black" stroke="black" points="573.92,-116.24 566.72,-108.47 567.5,-119.04 573.92,-116.24"/>
</g>
<!-- * -->
<g id="node15" class="node">
<title>*</title>
<ellipse fill="none" stroke="black" cx="631.55" cy="-91" rx="27" ry="18"/>
<text text-anchor="middle" x="631.55" y="-87.3" font-family="Times,serif" font-size="14.00">*</text>
</g>
<!-- repeat&#45;&gt;* -->
<g id="edge15" class="edge">
<title>repeat&#45;&gt;*</title>
<path fill="none" stroke="black" d="M603.46,-160.21C608.43,-148.14 615.23,-131.64 620.89,-117.89"/>
<polygon fill="black" stroke="black" points="624.19,-119.05 624.77,-108.47 617.72,-116.38 624.19,-119.05"/>
</g>
<!-- ? -->
<g id="node16" class="node">
<title>?</title>
<ellipse fill="none" stroke="black" cx="703.55" cy="-91" rx="27" ry="18"/>
<text text-anchor="middle" x="703.55" y="-87.3" font-family="Times,serif" font-size="14.00">?</text>
</g>
<!-- repeat&#45;&gt;? -->
<g id="edge16" class="edge">
<title>repeat&#45;&gt;?</title>
<path fill="none" stroke="black" d="M614.7,-162.58C632.33,-148.57 659.24,-127.2 678.82,-111.64"/>
<polygon fill="black" stroke="black" points="681.07,-114.33 686.72,-105.37 676.71,-108.85 681.07,-114.33"/>
</g>
<!-- one or more -->
<g id="node19" class="node">
<title>one or more</title>
<ellipse fill="none" stroke="black" cx="461.55" cy="-18" rx="53.89" ry="18"/>
<text text-anchor="middle" x="461.55" y="-14.3" font-family="Times,serif" font-size="14.00">one or more</text>
</g>
<!-- +&#45;&gt;one or more -->
<g id="edge20" class="edge">
<title>+&#45;&gt;one or more</title>
<path fill="none" stroke="black" d="M541.57,-76.98C527.55,-66.82 507.77,-52.49 491.38,-40.62"/>
<polygon fill="black" stroke="black" points="493.32,-37.7 483.17,-34.67 489.22,-43.37 493.32,-37.7"/>
</g>
<!-- zero or more -->
<g id="node18" class="node">
<title>zero or more</title>
<ellipse fill="none" stroke="black" cx="589.55" cy="-18" rx="56.59" ry="18"/>
<text text-anchor="middle" x="589.55" y="-14.3" font-family="Times,serif" font-size="14.00">zero or more</text>
</g>
<!-- *&#45;&gt;zero or more -->
<g id="edge19" class="edge">
<title>*&#45;&gt;zero or more</title>
<path fill="none" stroke="black" d="M622.02,-73.89C616.95,-65.33 610.61,-54.61 604.88,-44.91"/>
<polygon fill="black" stroke="black" points="607.73,-42.86 599.63,-36.04 601.7,-46.43 607.73,-42.86"/>
</g>
<!-- optional -->
<g id="node20" class="node">
<title>optional</title>
<ellipse fill="none" stroke="black" cx="703.55" cy="-18" rx="39.79" ry="18"/>
<text text-anchor="middle" x="703.55" y="-14.3" font-family="Times,serif" font-size="14.00">optional</text>
</g>
<!-- ?&#45;&gt;optional -->
<g id="edge21" class="edge">
<title>?&#45;&gt;optional</title>
<path fill="none" stroke="black" d="M703.55,-72.81C703.55,-64.79 703.55,-55.05 703.55,-46.07"/>
<polygon fill="black" stroke="black" points="707.05,-46.03 703.55,-36.03 700.05,-46.03 707.05,-46.03"/>
</g>
<!-- [...] -->
<g id="node21" class="node">
<title>[...]</title>
<ellipse fill="none" stroke="black" cx="795.55" cy="-91" rx="27" ry="18"/>
<text text-anchor="middle" x="795.55" y="-87.3" font-family="Times,serif" font-size="14.00">[...]</text>
</g>
<!-- character set&#45;&gt;[...] -->
<g id="edge22" class="edge">
<title>character set&#45;&gt;[...]</title>
<path fill="none" stroke="black" d="M826.66,-159.8C821.1,-147.7 813.58,-131.29 807.32,-117.65"/>
<polygon fill="black" stroke="black" points="810.38,-115.94 803.03,-108.31 804.02,-118.86 810.38,-115.94"/>
</g>
<!-- [...&#45;...] -->
<g id="node23" class="node">
<title>[...&#45;...]</title>
<ellipse fill="none" stroke="black" cx="875.55" cy="-91" rx="34.39" ry="18"/>
<text text-anchor="middle" x="875.55" y="-87.3" font-family="Times,serif" font-size="14.00">[...&#45;...]</text>
</g>
<!-- character set&#45;&gt;[...&#45;...] -->
<g id="edge24" class="edge">
<title>character set&#45;&gt;[...&#45;...]</title>
<path fill="none" stroke="black" d="M842.84,-159.8C848.64,-147.78 856.49,-131.51 863.05,-117.92"/>
<polygon fill="black" stroke="black" points="866.35,-119.12 867.54,-108.6 860.04,-116.08 866.35,-119.12"/>
</g>
<!-- [^...] -->
<g id="node25" class="node">
<title>[^...]</title>
<ellipse fill="none" stroke="black" cx="959.55" cy="-91" rx="28.7" ry="18"/>
<text text-anchor="middle" x="959.55" y="-87.3" font-family="Times,serif" font-size="14.00">[^...]</text>
</g>
<!-- character set&#45;&gt;[^...] -->
<g id="edge26" class="edge">
<title>character set&#45;&gt;[^...]</title>
<path fill="none" stroke="black" d="M857.47,-161.41C878.63,-147.02 910.06,-125.65 932.45,-110.43"/>
<polygon fill="black" stroke="black" points="934.54,-113.24 940.84,-104.72 930.6,-107.45 934.54,-113.24"/>
</g>
<!-- any of -->
<g id="node22" class="node">
<title>any of</title>
<ellipse fill="none" stroke="black" cx="794.55" cy="-18" rx="33.29" ry="18"/>
<text text-anchor="middle" x="794.55" y="-14.3" font-family="Times,serif" font-size="14.00">any of</text>
</g>
<!-- [...]&#45;&gt;any of -->
<g id="edge23" class="edge">
<title>[...]&#45;&gt;any of</title>
<path fill="none" stroke="black" d="M795.31,-72.81C795.19,-64.79 795.06,-55.05 794.93,-46.07"/>
<polygon fill="black" stroke="black" points="798.43,-45.98 794.79,-36.03 791.43,-46.08 798.43,-45.98"/>
</g>
<!-- range -->
<g id="node24" class="node">
<title>range</title>
<ellipse fill="none" stroke="black" cx="876.55" cy="-18" rx="30.59" ry="18"/>
<text text-anchor="middle" x="876.55" y="-14.3" font-family="Times,serif" font-size="14.00">range</text>
</g>
<!-- [...&#45;...]&#45;&gt;range -->
<g id="edge25" class="edge">
<title>[...&#45;...]&#45;&gt;range</title>
<path fill="none" stroke="black" d="M875.79,-72.81C875.9,-64.79 876.04,-55.05 876.17,-46.07"/>
<polygon fill="black" stroke="black" points="879.67,-46.08 876.31,-36.03 872.67,-45.98 879.67,-46.08"/>
</g>
<!-- none of -->
<g id="node26" class="node">
<title>none of</title>
<ellipse fill="none" stroke="black" cx="962.55" cy="-18" rx="37.89" ry="18"/>
<text text-anchor="middle" x="962.55" y="-14.3" font-family="Times,serif" font-size="14.00">none of</text>
</g>
<!-- [^...]&#45;&gt;none of -->
<g id="edge27" class="edge">
<title>[^...]&#45;&gt;none of</title>
<path fill="none" stroke="black" d="M960.27,-72.81C960.61,-64.79 961.02,-55.05 961.4,-46.07"/>
<polygon fill="black" stroke="black" points="964.9,-46.17 961.83,-36.03 957.91,-45.87 964.9,-46.17"/>
</g>
<!-- ^ -->
<g id="node29" class="node">
<title>^</title>
<ellipse fill="none" stroke="black" cx="1069.55" cy="-91" rx="27" ry="18"/>
<text text-anchor="middle" x="1069.55" y="-87.3" font-family="Times,serif" font-size="14.00">^</text>
</g>
<!-- markers&#45;&gt;^ -->
<g id="edge30" class="edge">
<title>markers&#45;&gt;^</title>
<path fill="none" stroke="black" d="M1069.55,-159.8C1069.55,-148.16 1069.55,-132.55 1069.55,-119.24"/>
<polygon fill="black" stroke="black" points="1073.05,-119.18 1069.55,-109.18 1066.05,-119.18 1073.05,-119.18"/>
</g>
<!-- $ -->
<g id="node31" class="node">
<title>$</title>
<ellipse fill="none" stroke="black" cx="1164.55" cy="-91" rx="27" ry="18"/>
<text text-anchor="middle" x="1164.55" y="-87.3" font-family="Times,serif" font-size="14.00">$</text>
</g>
<!-- markers&#45;&gt;$ -->
<g id="edge32" class="edge">
<title>markers&#45;&gt;$</title>
<path fill="none" stroke="black" d="M1086.97,-161.41C1102.25,-147.74 1124.59,-127.75 1141.38,-112.73"/>
<polygon fill="black" stroke="black" points="1144,-115.08 1149.12,-105.8 1139.33,-109.86 1144,-115.08"/>
</g>
<!-- start of line -->
<g id="node30" class="node">
<title>start of line</title>
<ellipse fill="none" stroke="black" cx="1069.55" cy="-18" rx="51.19" ry="18"/>
<text text-anchor="middle" x="1069.55" y="-14.3" font-family="Times,serif" font-size="14.00">start of line</text>
</g>
<!-- ^&#45;&gt;start of line -->
<g id="edge31" class="edge">
<title>^&#45;&gt;start of line</title>
<path fill="none" stroke="black" d="M1069.55,-72.81C1069.55,-64.79 1069.55,-55.05 1069.55,-46.07"/>
<polygon fill="black" stroke="black" points="1073.05,-46.03 1069.55,-36.03 1066.05,-46.03 1073.05,-46.03"/>
</g>
<!-- end of line -->
<g id="node32" class="node">
<title>end of line</title>
<ellipse fill="none" stroke="black" cx="1187.55" cy="-18" rx="48.99" ry="18"/>
<text text-anchor="middle" x="1187.55" y="-14.3" font-family="Times,serif" font-size="14.00">end of line</text>
</g>
<!-- $&#45;&gt;end of line -->
<g id="edge33" class="edge">
<title>$&#45;&gt;end of line</title>
<path fill="none" stroke="black" d="M1170,-73.17C1172.65,-64.98 1175.91,-54.94 1178.89,-45.73"/>
<polygon fill="black" stroke="black" points="1182.22,-46.79 1181.98,-36.2 1175.56,-44.63 1182.22,-46.79"/>
</g>
</g>
</svg>
