<?xml version="1.0" encoding="UTF-8" standalone="no"?>
<!DOCTYPE svg PUBLIC "-//W3C//DTD SVG 1.1//EN"
 "http://www.w3.org/Graphics/SVG/1.1/DTD/svg11.dtd">
<!-- Generated by graphviz version 2.44.1 (20200629.0846)
 -->
<!-- Title: rmarkdown Pages: 1 -->
<svg width="818pt" height="674pt"
 viewBox="0.00 0.00 818.05 674.00" xmlns="http://www.w3.org/2000/svg" xmlns:xlink="http://www.w3.org/1999/xlink">
<g id="graph0" class="graph" transform="scale(1 1) rotate(0) translate(4 670)">
<title>rmarkdown</title>
<polygon fill="white" stroke="transparent" points="-4,4 -4,-670 814.05,-670 814.05,4 -4,4"/>
<!-- R Markdown -->
<g id="node1" class="node">
<title>R Markdown</title>
<ellipse fill="none" stroke="black" cx="127.05" cy="-648" rx="57.69" ry="18"/>
<text text-anchor="middle" x="127.05" y="-644.3" font-family="Times,serif" font-size="14.00">R Markdown</text>
</g>
<!-- YAML -->
<g id="node2" class="node">
<title>YAML</title>
<ellipse fill="none" stroke="black" cx="193.05" cy="-561" rx="36.29" ry="18"/>
<text text-anchor="middle" x="193.05" y="-557.3" font-family="Times,serif" font-size="14.00">YAML</text>
</g>
<!-- R Markdown&#45;&gt;YAML -->
<g id="edge1" class="edge">
<title>R Markdown&#45;&gt;YAML</title>
<path fill="none" stroke="black" d="M140.09,-630.21C149.79,-617.71 163.19,-600.45 174.08,-586.43"/>
<polygon fill="black" stroke="black" points="177.11,-588.23 180.48,-578.18 171.58,-583.93 177.11,-588.23"/>
<text text-anchor="middle" x="186.05" y="-600.8" font-family="Times,serif" font-size="14.00">contains</text>
</g>
<!-- Markdown -->
<g id="node3" class="node">
<title>Markdown</title>
<ellipse fill="none" stroke="black" cx="50.05" cy="-507" rx="50.09" ry="18"/>
<text text-anchor="middle" x="50.05" y="-503.3" font-family="Times,serif" font-size="14.00">Markdown</text>
</g>
<!-- R Markdown&#45;&gt;Markdown -->
<g id="edge2" class="edge">
<title>R Markdown&#45;&gt;Markdown</title>
<path fill="none" stroke="black" d="M92.46,-633.57C82.85,-628.23 73.33,-621.14 67.05,-612 51.55,-589.46 48.35,-557.77 48.38,-535.31"/>
<polygon fill="black" stroke="black" points="51.88,-535.18 48.61,-525.1 44.88,-535.02 51.88,-535.18"/>
<text text-anchor="middle" x="90.05" y="-600.8" font-family="Times,serif" font-size="14.00">contains</text>
</g>
<!-- R code -->
<g id="node4" class="node">
<title>R code</title>
<ellipse fill="none" stroke="black" cx="165.05" cy="-366" rx="36" ry="18"/>
<text text-anchor="middle" x="165.05" y="-362.3" font-family="Times,serif" font-size="14.00">R code</text>
</g>
<!-- R Markdown&#45;&gt;R code -->
<g id="edge3" class="edge">
<title>R Markdown&#45;&gt;R code</title>
<path fill="none" stroke="black" d="M127.52,-629.82C128.76,-593.55 132.95,-506.61 146.05,-435 148.58,-421.15 152.66,-406.04 156.4,-393.59"/>
<polygon fill="black" stroke="black" points="159.8,-394.43 159.41,-383.85 153.11,-392.37 159.8,-394.43"/>
<text text-anchor="middle" x="160.05" y="-503.3" font-family="Times,serif" font-size="14.00">contains</text>
</g>
<!-- metadata -->
<g id="node6" class="node">
<title>metadata</title>
<ellipse fill="none" stroke="black" cx="198.05" cy="-453" rx="42.79" ry="18"/>
<text text-anchor="middle" x="198.05" y="-449.3" font-family="Times,serif" font-size="14.00">metadata</text>
</g>
<!-- YAML&#45;&gt;metadata -->
<g id="edge5" class="edge">
<title>YAML&#45;&gt;metadata</title>
<path fill="none" stroke="black" d="M193.85,-542.97C194.63,-526.38 195.83,-500.88 196.75,-481.43"/>
<polygon fill="black" stroke="black" points="200.25,-481.49 197.23,-471.34 193.26,-481.16 200.25,-481.49"/>
<text text-anchor="middle" x="218.55" y="-503.3" font-family="Times,serif" font-size="14.00">used for</text>
</g>
<!-- formatted text -->
<g id="node13" class="node">
<title>formatted text</title>
<ellipse fill="none" stroke="black" cx="76.05" cy="-192" rx="61.19" ry="18"/>
<text text-anchor="middle" x="76.05" y="-188.3" font-family="Times,serif" font-size="14.00">formatted text</text>
</g>
<!-- Markdown&#45;&gt;formatted text -->
<g id="edge14" class="edge">
<title>Markdown&#45;&gt;formatted text</title>
<path fill="none" stroke="black" d="M47.73,-488.78C45.37,-469.69 42.05,-437.95 42.05,-410.5 42.05,-410.5 42.05,-410.5 42.05,-278 42.05,-257.01 51.1,-235.05 59.86,-218.71"/>
<polygon fill="black" stroke="black" points="63.03,-220.22 64.91,-209.79 56.94,-216.77 63.03,-220.22"/>
<text text-anchor="middle" x="67.55" y="-362.3" font-family="Times,serif" font-size="14.00">describes</text>
</g>
<!-- chunks -->
<g id="node5" class="node">
<title>chunks</title>
<ellipse fill="none" stroke="black" cx="424.05" cy="-279" rx="36" ry="18"/>
<text text-anchor="middle" x="424.05" y="-275.3" font-family="Times,serif" font-size="14.00">chunks</text>
</g>
<!-- R code&#45;&gt;chunks -->
<g id="edge4" class="edge">
<title>R code&#45;&gt;chunks</title>
<path fill="none" stroke="black" d="M194.25,-355.41C241.11,-340.04 333.1,-309.85 385.36,-292.7"/>
<polygon fill="black" stroke="black" points="386.54,-295.99 394.95,-289.55 384.35,-289.34 386.54,-295.99"/>
<text text-anchor="middle" x="335.05" y="-318.8" font-family="Times,serif" font-size="14.00">can be in</text>
</g>
<!-- documents -->
<g id="node7" class="node">
<title>documents</title>
<ellipse fill="none" stroke="black" cx="165.05" cy="-105" rx="49.29" ry="18"/>
<text text-anchor="middle" x="165.05" y="-101.3" font-family="Times,serif" font-size="14.00">documents</text>
</g>
<!-- R code&#45;&gt;documents -->
<g id="edge12" class="edge">
<title>R code&#45;&gt;documents</title>
<path fill="none" stroke="black" d="M164.48,-347.63C163.75,-323.97 162.5,-280.29 162.05,-243 161.58,-204.99 162.86,-161.05 163.89,-133.4"/>
<polygon fill="black" stroke="black" points="167.4,-133.43 164.29,-123.3 160.4,-133.16 167.4,-133.43"/>
<text text-anchor="middle" x="217.05" y="-231.8" font-family="Times,serif" font-size="14.00">executed to produce</text>
</g>
<!-- inline -->
<g id="node11" class="node">
<title>inline</title>
<ellipse fill="none" stroke="black" cx="104.05" cy="-279" rx="30.59" ry="18"/>
<text text-anchor="middle" x="104.05" y="-275.3" font-family="Times,serif" font-size="14.00">inline</text>
</g>
<!-- R code&#45;&gt;inline -->
<g id="edge11" class="edge">
<title>R code&#45;&gt;inline</title>
<path fill="none" stroke="black" d="M140.34,-352.82C131.1,-347.09 121.34,-339.43 115.05,-330 110.59,-323.32 107.91,-315.12 106.3,-307.31"/>
<polygon fill="black" stroke="black" points="109.76,-306.77 104.76,-297.43 102.84,-307.85 109.76,-306.77"/>
<text text-anchor="middle" x="133.05" y="-318.8" font-family="Times,serif" font-size="14.00">can be</text>
</g>
<!-- chunks&#45;&gt;formatted text -->
<g id="edge19" class="edge">
<title>chunks&#45;&gt;formatted text</title>
<path fill="none" stroke="black" d="M392.93,-269.72C369.58,-263.23 336.96,-253.54 309.05,-243 293.97,-237.31 291.44,-232.76 276.05,-228 232.52,-214.54 181.96,-205.75 142.57,-200.34"/>
<polygon fill="black" stroke="black" points="142.92,-196.86 132.55,-199.01 142,-203.8 142.92,-196.86"/>
<text text-anchor="middle" x="342.55" y="-231.8" font-family="Times,serif" font-size="14.00">can produce</text>
</g>
<!-- names -->
<g id="node14" class="node">
<title>names</title>
<ellipse fill="none" stroke="black" cx="640.05" cy="-192" rx="33.6" ry="18"/>
<text text-anchor="middle" x="640.05" y="-188.3" font-family="Times,serif" font-size="14.00">names</text>
</g>
<!-- chunks&#45;&gt;names -->
<g id="edge16" class="edge">
<title>chunks&#45;&gt;names</title>
<path fill="none" stroke="black" d="M459.86,-278.26C497.86,-276.97 558.35,-270.25 602.05,-243 611.86,-236.88 620.07,-227.24 626.31,-218.06"/>
<polygon fill="black" stroke="black" points="629.32,-219.85 631.69,-209.52 623.4,-216.12 629.32,-219.85"/>
<text text-anchor="middle" x="642.55" y="-231.8" font-family="Times,serif" font-size="14.00">can have</text>
</g>
<!-- parameters -->
<g id="node15" class="node">
<title>parameters</title>
<ellipse fill="none" stroke="black" cx="367.05" cy="-192" rx="50.09" ry="18"/>
<text text-anchor="middle" x="367.05" y="-188.3" font-family="Times,serif" font-size="14.00">parameters</text>
</g>
<!-- chunks&#45;&gt;parameters -->
<g id="edge17" class="edge">
<title>chunks&#45;&gt;parameters</title>
<path fill="none" stroke="black" d="M406.66,-263.1C400.56,-257.26 393.99,-250.23 389.05,-243 384.15,-235.85 379.95,-227.43 376.56,-219.56"/>
<polygon fill="black" stroke="black" points="379.71,-217.99 372.73,-210.02 373.21,-220.6 379.71,-217.99"/>
<text text-anchor="middle" x="413.55" y="-231.8" font-family="Times,serif" font-size="14.00">can have</text>
</g>
<!-- tables -->
<g id="node16" class="node">
<title>tables</title>
<ellipse fill="none" stroke="black" cx="466.05" cy="-192" rx="31.4" ry="18"/>
<text text-anchor="middle" x="466.05" y="-188.3" font-family="Times,serif" font-size="14.00">tables</text>
</g>
<!-- chunks&#45;&gt;tables -->
<g id="edge20" class="edge">
<title>chunks&#45;&gt;tables</title>
<path fill="none" stroke="black" d="M432.34,-261.21C438.36,-249.02 446.62,-232.32 453.45,-218.49"/>
<polygon fill="black" stroke="black" points="456.62,-219.98 457.91,-209.47 450.34,-216.88 456.62,-219.98"/>
<text text-anchor="middle" x="480.55" y="-231.8" font-family="Times,serif" font-size="14.00">can produce</text>
</g>
<!-- plots -->
<g id="node17" class="node">
<title>plots</title>
<ellipse fill="none" stroke="black" cx="550.05" cy="-192" rx="27.9" ry="18"/>
<text text-anchor="middle" x="550.05" y="-188.3" font-family="Times,serif" font-size="14.00">plots</text>
</g>
<!-- chunks&#45;&gt;plots -->
<g id="edge21" class="edge">
<title>chunks&#45;&gt;plots</title>
<path fill="none" stroke="black" d="M456.7,-271.36C476.09,-266.15 500.29,-257.33 518.05,-243 526.06,-236.54 532.69,-227.51 537.8,-218.89"/>
<polygon fill="black" stroke="black" points="541.01,-220.31 542.73,-209.86 534.87,-216.95 541.01,-220.31"/>
<text text-anchor="middle" x="564.55" y="-231.8" font-family="Times,serif" font-size="14.00">can produce</text>
</g>
<!-- metadata&#45;&gt;R code -->
<g id="edge7" class="edge">
<title>metadata&#45;&gt;R code</title>
<path fill="none" stroke="black" d="M191.53,-435.21C186.87,-423.22 180.52,-406.85 175.2,-393.16"/>
<polygon fill="black" stroke="black" points="178.43,-391.81 171.55,-383.76 171.91,-394.35 178.43,-391.81"/>
<text text-anchor="middle" x="203.05" y="-405.8" font-family="Times,serif" font-size="14.00">used in</text>
</g>
<!-- metadata&#45;&gt;documents -->
<g id="edge6" class="edge">
<title>metadata&#45;&gt;documents</title>
<path fill="none" stroke="black" d="M240.32,-449.34C361.93,-441.13 704.05,-413.88 704.05,-367 704.05,-367 704.05,-367 704.05,-191 704.05,-142.83 363.75,-117.54 223.94,-109.19"/>
<polygon fill="black" stroke="black" points="224.02,-105.69 213.83,-108.59 223.61,-112.68 224.02,-105.69"/>
<text text-anchor="middle" x="757.05" y="-275.3" font-family="Times,serif" font-size="14.00">controls formatting</text>
</g>
<!-- PDF -->
<g id="node8" class="node">
<title>PDF</title>
<ellipse fill="none" stroke="black" cx="47.05" cy="-18" rx="27" ry="18"/>
<text text-anchor="middle" x="47.05" y="-14.3" font-family="Times,serif" font-size="14.00">PDF</text>
</g>
<!-- documents&#45;&gt;PDF -->
<g id="edge8" class="edge">
<title>documents&#45;&gt;PDF</title>
<path fill="none" stroke="black" d="M143.68,-88.61C123.83,-74.31 94.23,-52.99 73.03,-37.72"/>
<polygon fill="black" stroke="black" points="74.95,-34.79 64.79,-31.78 70.86,-40.47 74.95,-34.79"/>
</g>
<!-- slides -->
<g id="node9" class="node">
<title>slides</title>
<ellipse fill="none" stroke="black" cx="123.05" cy="-18" rx="30.59" ry="18"/>
<text text-anchor="middle" x="123.05" y="-14.3" font-family="Times,serif" font-size="14.00">slides</text>
</g>
<!-- documents&#45;&gt;slides -->
<g id="edge9" class="edge">
<title>documents&#45;&gt;slides</title>
<path fill="none" stroke="black" d="M156.75,-87.21C150.73,-75.02 142.47,-58.32 135.64,-44.49"/>
<polygon fill="black" stroke="black" points="138.75,-42.88 131.18,-35.47 132.48,-45.98 138.75,-42.88"/>
</g>
<!-- HTML -->
<g id="node10" class="node">
<title>HTML</title>
<ellipse fill="none" stroke="black" cx="208.05" cy="-18" rx="36.29" ry="18"/>
<text text-anchor="middle" x="208.05" y="-14.3" font-family="Times,serif" font-size="14.00">HTML</text>
</g>
<!-- documents&#45;&gt;HTML -->
<g id="edge10" class="edge">
<title>documents&#45;&gt;HTML</title>
<path fill="none" stroke="black" d="M173.54,-87.21C179.67,-75.1 188.05,-58.53 195.01,-44.76"/>
<polygon fill="black" stroke="black" points="198.18,-46.26 199.57,-35.76 191.93,-43.1 198.18,-46.26"/>
</g>
<!-- reproducible -->
<g id="node12" class="node">
<title>reproducible</title>
<ellipse fill="none" stroke="black" cx="318.05" cy="-18" rx="55.49" ry="18"/>
<text text-anchor="middle" x="318.05" y="-14.3" font-family="Times,serif" font-size="14.00">reproducible</text>
</g>
<!-- documents&#45;&gt;reproducible -->
<g id="edge13" class="edge">
<title>documents&#45;&gt;reproducible</title>
<path fill="none" stroke="black" d="M191,-89.58C216.05,-75.67 254.18,-54.48 282.13,-38.95"/>
<polygon fill="black" stroke="black" points="284.15,-41.84 291.19,-33.92 280.75,-35.72 284.15,-41.84"/>
<text text-anchor="middle" x="258.55" y="-57.8" font-family="Times,serif" font-size="14.00">are</text>
</g>
<!-- inline&#45;&gt;formatted text -->
<g id="edge18" class="edge">
<title>inline&#45;&gt;formatted text</title>
<path fill="none" stroke="black" d="M88.69,-263.37C83.65,-257.57 78.67,-250.49 76.05,-243 73.55,-235.87 72.75,-227.82 72.78,-220.28"/>
<polygon fill="black" stroke="black" points="76.28,-220.3 73.29,-210.14 69.29,-219.95 76.28,-220.3"/>
<text text-anchor="middle" x="109.55" y="-231.8" font-family="Times,serif" font-size="14.00">can produce</text>
</g>
<!-- formatted text&#45;&gt;documents -->
<g id="edge15" class="edge">
<title>formatted text&#45;&gt;documents</title>
<path fill="none" stroke="black" d="M85.64,-174.01C91.99,-163.7 100.98,-150.71 111.05,-141 116.75,-135.49 123.45,-130.34 130.15,-125.78"/>
<polygon fill="black" stroke="black" points="132.07,-128.71 138.56,-120.34 128.26,-122.84 132.07,-128.71"/>
<text text-anchor="middle" x="131.05" y="-144.8" font-family="Times,serif" font-size="14.00">goes in</text>
</g>
</g>
</svg>
