<?xml version="1.0" encoding="UTF-8" standalone="no"?>
<!DOCTYPE svg PUBLIC "-//W3C//DTD SVG 1.1//EN"
 "http://www.w3.org/Graphics/SVG/1.1/DTD/svg11.dtd">
<!-- Generated by graphviz version 2.44.1 (20200629.0846)
 -->
<!-- Title: separate&#45;extract&#45;unite Pages: 1 -->
<svg width="564pt" height="236pt"
 viewBox="0.00 0.00 564.11 235.74" xmlns="http://www.w3.org/2000/svg" xmlns:xlink="http://www.w3.org/1999/xlink">
<g id="graph0" class="graph" transform="scale(1 1) rotate(0) translate(4 231.74)">
<title>separate&#45;extract&#45;unite</title>
<polygon fill="white" stroke="transparent" points="-4,4 -4,-231.74 560.11,-231.74 560.11,4 -4,4"/>
<!-- separate -->
<g id="node1" class="node">
<title>separate</title>
<ellipse fill="none" stroke="black" cx="115.11" cy="-209.74" rx="39.79" ry="18"/>
<text text-anchor="middle" x="115.11" y="-206.04" font-family="Times,serif" font-size="14.00">separate</text>
</g>
<!-- positions -->
<g id="node2" class="node">
<title>positions</title>
<ellipse fill="none" stroke="black" cx="442.11" cy="-113.87" rx="42.49" ry="18"/>
<text text-anchor="middle" x="442.11" y="-110.17" font-family="Times,serif" font-size="14.00">positions</text>
</g>
<!-- separate&#45;&gt;positions -->
<g id="edge1" class="edge">
<title>separate&#45;&gt;positions</title>
<path fill="none" stroke="black" d="M154.1,-206.33C194.38,-202.8 258.48,-194.23 310.11,-173.74 321.45,-169.24 322.29,-164.38 333.11,-158.74 345.62,-152.22 376.44,-139.94 402.12,-130.02"/>
<polygon fill="black" stroke="black" points="403.59,-133.21 411.67,-126.36 401.08,-126.68 403.59,-133.21"/>
<text text-anchor="middle" x="353.61" y="-162.54" font-family="Times,serif" font-size="14.00">can use</text>
</g>
<!-- regular\nexpressions -->
<g id="node4" class="node">
<title>regular\nexpressions</title>
<ellipse fill="none" stroke="black" cx="195.11" cy="-113.87" rx="56.64" ry="26.74"/>
<text text-anchor="middle" x="195.11" y="-117.67" font-family="Times,serif" font-size="14.00">regular</text>
<text text-anchor="middle" x="195.11" y="-102.67" font-family="Times,serif" font-size="14.00">expressions</text>
</g>
<!-- separate&#45;&gt;regular\nexpressions -->
<g id="edge3" class="edge">
<title>separate&#45;&gt;regular\nexpressions</title>
<path fill="none" stroke="black" d="M111.37,-191.35C110.12,-181.15 110.29,-168.41 116.11,-158.74 121.99,-148.97 130.91,-141.21 140.65,-135.11"/>
<polygon fill="black" stroke="black" points="142.4,-138.14 149.38,-130.16 138.95,-132.05 142.4,-138.14"/>
<text text-anchor="middle" x="136.61" y="-162.54" font-family="Times,serif" font-size="14.00">can use</text>
</g>
<!-- columns -->
<g id="node5" class="node">
<title>columns</title>
<ellipse fill="none" stroke="black" cx="82.11" cy="-18" rx="40.89" ry="18"/>
<text text-anchor="middle" x="82.11" y="-14.3" font-family="Times,serif" font-size="14.00">columns</text>
</g>
<!-- separate&#45;&gt;columns -->
<g id="edge5" class="edge">
<title>separate&#45;&gt;columns</title>
<path fill="none" stroke="black" d="M79.63,-201.32C61.39,-196.07 39.77,-187.46 24.11,-173.74 11.54,-162.73 10.24,-156.93 6.11,-140.74 0.21,-117.6 -3.64,-108.8 6.11,-87 15.09,-66.9 33.28,-50.29 49.61,-38.51"/>
<polygon fill="black" stroke="black" points="51.66,-41.35 57.92,-32.8 47.69,-35.58 51.66,-41.35"/>
<text text-anchor="middle" x="25.11" y="-110.17" font-family="Times,serif" font-size="14.00">creates</text>
</g>
<!-- unite -->
<g id="node6" class="node">
<title>unite</title>
<ellipse fill="none" stroke="black" cx="82.11" cy="-113.87" rx="28.7" ry="18"/>
<text text-anchor="middle" x="82.11" y="-110.17" font-family="Times,serif" font-size="14.00">unite</text>
</g>
<!-- separate&#45;&gt;unite -->
<g id="edge6" class="edge">
<title>separate&#45;&gt;unite</title>
<path fill="none" stroke="black" d="M78.08,-202.96C60.74,-198.19 41.63,-189.51 31.11,-173.74 20.95,-158.51 35.81,-142.92 52.06,-131.61"/>
<polygon fill="black" stroke="black" points="54.06,-134.49 60.56,-126.12 50.26,-128.61 54.06,-134.49"/>
<text text-anchor="middle" x="62.11" y="-162.54" font-family="Times,serif" font-size="14.00">can reverse</text>
</g>
<!-- NA -->
<g id="node7" class="node">
<title>NA</title>
<ellipse fill="none" stroke="black" cx="336.11" cy="-113.87" rx="27" ry="18"/>
<text text-anchor="middle" x="336.11" y="-110.17" font-family="Times,serif" font-size="14.00">NA</text>
</g>
<!-- separate&#45;&gt;NA -->
<g id="edge9" class="edge">
<title>separate&#45;&gt;NA</title>
<path fill="none" stroke="black" d="M133.11,-193.46C148.67,-180.53 170.18,-163.38 180.11,-158.74 213.52,-143.13 225.62,-150.77 261.11,-140.74 275.16,-136.77 290.43,-131.65 303.5,-127.02"/>
<polygon fill="black" stroke="black" points="304.79,-130.28 313.01,-123.6 302.42,-123.69 304.79,-130.28"/>
<text text-anchor="middle" x="213.11" y="-162.54" font-family="Times,serif" font-size="14.00">can fill with</text>
</g>
<!-- extract -->
<g id="node3" class="node">
<title>extract</title>
<ellipse fill="none" stroke="black" cx="435.11" cy="-209.74" rx="34.39" ry="18"/>
<text text-anchor="middle" x="435.11" y="-206.04" font-family="Times,serif" font-size="14.00">extract</text>
</g>
<!-- extract&#45;&gt;positions -->
<g id="edge2" class="edge">
<title>extract&#45;&gt;positions</title>
<path fill="none" stroke="black" d="M445.03,-192.22C447.9,-186.56 450.66,-180.06 452.11,-173.74 454.51,-163.32 453.35,-151.73 451.11,-141.62"/>
<polygon fill="black" stroke="black" points="454.43,-140.49 448.49,-131.72 447.66,-142.28 454.43,-140.49"/>
<text text-anchor="middle" x="473.61" y="-162.54" font-family="Times,serif" font-size="14.00">can use</text>
</g>
<!-- extract&#45;&gt;regular\nexpressions -->
<g id="edge4" class="edge">
<title>extract&#45;&gt;regular\nexpressions</title>
<path fill="none" stroke="black" d="M401.22,-206.2C366.61,-202.57 312.01,-193.93 269.11,-173.74 260.38,-169.63 244.07,-156.89 228.98,-144.31"/>
<polygon fill="black" stroke="black" points="231.15,-141.56 221.25,-137.79 226.64,-146.91 231.15,-141.56"/>
<text text-anchor="middle" x="289.61" y="-162.54" font-family="Times,serif" font-size="14.00">can use</text>
</g>
<!-- extract&#45;&gt;columns -->
<g id="edge7" class="edge">
<title>extract&#45;&gt;columns</title>
<path fill="none" stroke="black" d="M464.42,-200.01C477.12,-194.61 490.75,-186.25 498.11,-173.74 509.64,-154.15 541.24,-139.9 493.11,-87 445.69,-34.88 232.34,-22.71 133.13,-19.86"/>
<polygon fill="black" stroke="black" points="133.13,-16.36 123.04,-19.6 132.95,-23.36 133.13,-16.36"/>
<text text-anchor="middle" x="537.11" y="-110.17" font-family="Times,serif" font-size="14.00">creates</text>
</g>
<!-- extract&#45;&gt;NA -->
<g id="edge10" class="edge">
<title>extract&#45;&gt;NA</title>
<path fill="none" stroke="black" d="M416.76,-194.16C409.27,-188.03 400.62,-180.71 393.11,-173.74 380.57,-162.1 367.23,-148.41 356.62,-137.16"/>
<polygon fill="black" stroke="black" points="359.13,-134.72 349.74,-129.81 354.02,-139.51 359.13,-134.72"/>
<text text-anchor="middle" x="420.61" y="-162.54" font-family="Times,serif" font-size="14.00">can create</text>
</g>
<!-- unite&#45;&gt;columns -->
<g id="edge8" class="edge">
<title>unite&#45;&gt;columns</title>
<path fill="none" stroke="black" d="M82.11,-95.65C82.11,-81.89 82.11,-62.34 82.11,-46.43"/>
<polygon fill="black" stroke="black" points="85.61,-46.11 82.11,-36.11 78.61,-46.11 85.61,-46.11"/>
<text text-anchor="middle" x="108.61" y="-57.8" font-family="Times,serif" font-size="14.00">combines</text>
</g>
</g>
</svg>
