<?xml version="1.0" encoding="UTF-8" standalone="no"?>
<!DOCTYPE svg PUBLIC "-//W3C//DTD SVG 1.1//EN"
 "http://www.w3.org/Graphics/SVG/1.1/DTD/svg11.dtd">
<!-- Generated by graphviz version 2.44.1 (20200629.0846)
 -->
<!-- Title: viz Pages: 1 -->
<svg width="548pt" height="618pt"
 viewBox="0.00 0.00 548.24 618.00" xmlns="http://www.w3.org/2000/svg" xmlns:xlink="http://www.w3.org/1999/xlink">
<g id="graph0" class="graph" transform="scale(1 1) rotate(0) translate(4 614)">
<title>viz</title>
<polygon fill="white" stroke="transparent" points="-4,4 -4,-614 544.24,-614 544.24,4 -4,4"/>
<!-- visualization -->
<g id="node1" class="node">
<title>visualization</title>
<ellipse fill="none" stroke="black" cx="153.4" cy="-592" rx="55.79" ry="18"/>
<text text-anchor="middle" x="153.4" y="-588.3" font-family="Times,serif" font-size="14.00">visualization</text>
</g>
<!-- layers -->
<g id="node2" class="node">
<title>layers</title>
<ellipse fill="none" stroke="black" cx="160.4" cy="-397" rx="31.7" ry="18"/>
<text text-anchor="middle" x="160.4" y="-393.3" font-family="Times,serif" font-size="14.00">layers</text>
</g>
<!-- visualization&#45;&gt;layers -->
<g id="edge1" class="edge">
<title>visualization&#45;&gt;layers</title>
<path fill="none" stroke="black" d="M154.02,-573.87C155.23,-540.32 157.94,-465.71 159.41,-425.29"/>
<polygon fill="black" stroke="black" points="162.91,-425.21 159.78,-415.09 155.92,-424.96 162.91,-425.21"/>
<text text-anchor="middle" x="185.9" y="-501.3" font-family="Times,serif" font-size="14.00">built up in</text>
</g>
<!-- data -->
<g id="node3" class="node">
<title>data</title>
<ellipse fill="none" stroke="black" cx="255.4" cy="-505" rx="27" ry="18"/>
<text text-anchor="middle" x="255.4" y="-501.3" font-family="Times,serif" font-size="14.00">data</text>
</g>
<!-- visualization&#45;&gt;data -->
<g id="edge2" class="edge">
<title>visualization&#45;&gt;data</title>
<path fill="none" stroke="black" d="M172.58,-575.01C189.2,-561.17 213.31,-541.07 231.24,-526.13"/>
<polygon fill="black" stroke="black" points="233.55,-528.76 238.99,-519.67 229.07,-523.38 233.55,-528.76"/>
<text text-anchor="middle" x="257.4" y="-544.8" font-family="Times,serif" font-size="14.00">gives insight into</text>
</g>
<!-- axes -->
<g id="node17" class="node">
<title>axes</title>
<ellipse fill="none" stroke="black" cx="102.4" cy="-451" rx="27" ry="18"/>
<text text-anchor="middle" x="102.4" y="-447.3" font-family="Times,serif" font-size="14.00">axes</text>
</g>
<!-- visualization&#45;&gt;axes -->
<g id="edge22" class="edge">
<title>visualization&#45;&gt;axes</title>
<path fill="none" stroke="black" d="M134.35,-574.77C129.06,-569.33 123.83,-562.87 120.4,-556 108.34,-531.88 104.19,-501.13 102.85,-479.34"/>
<polygon fill="black" stroke="black" points="106.34,-478.97 102.38,-469.14 99.34,-479.29 106.34,-478.97"/>
<text text-anchor="middle" x="129.9" y="-544.8" font-family="Times,serif" font-size="14.00">has</text>
</g>
<!-- mapping -->
<g id="node4" class="node">
<title>mapping</title>
<ellipse fill="none" stroke="black" cx="304.4" cy="-324" rx="42.49" ry="18"/>
<text text-anchor="middle" x="304.4" y="-320.3" font-family="Times,serif" font-size="14.00">mapping</text>
</g>
<!-- layers&#45;&gt;mapping -->
<g id="edge3" class="edge">
<title>layers&#45;&gt;mapping</title>
<path fill="none" stroke="black" d="M183.53,-384.59C206.57,-373.23 242.26,-355.64 268.89,-342.51"/>
<polygon fill="black" stroke="black" points="270.47,-345.63 277.89,-338.07 267.38,-339.35 270.47,-345.63"/>
</g>
<!-- geometry -->
<g id="node5" class="node">
<title>geometry</title>
<ellipse fill="none" stroke="black" cx="271.4" cy="-91" rx="44.39" ry="18"/>
<text text-anchor="middle" x="271.4" y="-87.3" font-family="Times,serif" font-size="14.00">geometry</text>
</g>
<!-- layers&#45;&gt;geometry -->
<g id="edge4" class="edge">
<title>layers&#45;&gt;geometry</title>
<path fill="none" stroke="black" d="M160.4,-378.78C160.4,-364.41 160.4,-343.37 160.4,-325 160.4,-325 160.4,-325 160.4,-177 160.4,-141.59 196.45,-118.93 227.47,-105.99"/>
<polygon fill="black" stroke="black" points="228.86,-109.2 236.88,-102.28 226.3,-102.69 228.86,-109.2"/>
</g>
<!-- has -->
<g id="node6" class="node">
<title>has</title>
<ellipse fill="none" stroke="black" stroke-dasharray="5,2" cx="255.4" cy="-397" rx="27" ry="18"/>
<text text-anchor="middle" x="255.4" y="-393.3" font-family="Times,serif" font-size="14.00">has</text>
</g>
<!-- data&#45;&gt;has -->
<g id="edge5" class="edge">
<title>data&#45;&gt;has</title>
<path fill="none" stroke="black" d="M255.4,-486.97C255.4,-470.38 255.4,-444.88 255.4,-425.43"/>
<polygon fill="black" stroke="black" points="258.9,-425.34 255.4,-415.34 251.9,-425.34 258.9,-425.34"/>
</g>
<!-- combine -->
<g id="node9" class="node">
<title>combine</title>
<ellipse fill="none" stroke="black" stroke-dasharray="5,2" cx="386.4" cy="-251" rx="41.69" ry="18"/>
<text text-anchor="middle" x="386.4" y="-247.3" font-family="Times,serif" font-size="14.00">combine</text>
</g>
<!-- mapping&#45;&gt;combine -->
<g id="edge9" class="edge">
<title>mapping&#45;&gt;combine</title>
<path fill="none" stroke="black" d="M322.19,-307.59C333.47,-297.82 348.25,-285.03 360.78,-274.18"/>
<polygon fill="black" stroke="black" points="363.37,-276.57 368.64,-267.38 358.79,-271.28 363.37,-276.57"/>
</g>
<!-- box -->
<g id="node11" class="node">
<title>box</title>
<ellipse fill="none" stroke="black" cx="414.4" cy="-18" rx="27" ry="18"/>
<text text-anchor="middle" x="414.4" y="-14.3" font-family="Times,serif" font-size="14.00">box</text>
</g>
<!-- geometry&#45;&gt;box -->
<g id="edge12" class="edge">
<title>geometry&#45;&gt;box</title>
<path fill="none" stroke="black" d="M298.29,-76.65C322.68,-64.53 358.61,-46.7 384.02,-34.08"/>
<polygon fill="black" stroke="black" points="385.8,-37.1 393.2,-29.52 382.69,-30.83 385.8,-37.1"/>
</g>
<!-- line -->
<g id="node12" class="node">
<title>line</title>
<ellipse fill="none" stroke="black" cx="184.4" cy="-18" rx="27" ry="18"/>
<text text-anchor="middle" x="184.4" y="-14.3" font-family="Times,serif" font-size="14.00">line</text>
</g>
<!-- geometry&#45;&gt;line -->
<g id="edge13" class="edge">
<title>geometry&#45;&gt;line</title>
<path fill="none" stroke="black" d="M252.52,-74.59C239.77,-64.19 222.82,-50.36 209.01,-39.09"/>
<polygon fill="black" stroke="black" points="210.85,-36.07 200.89,-32.46 206.43,-41.5 210.85,-36.07"/>
</g>
<!-- point -->
<g id="node13" class="node">
<title>point</title>
<ellipse fill="none" stroke="black" cx="109.4" cy="-18" rx="28.7" ry="18"/>
<text text-anchor="middle" x="109.4" y="-14.3" font-family="Times,serif" font-size="14.00">point</text>
</g>
<!-- geometry&#45;&gt;point -->
<g id="edge14" class="edge">
<title>geometry&#45;&gt;point</title>
<path fill="none" stroke="black" d="M242.43,-77.31C214.14,-64.91 171.16,-46.07 141.76,-33.18"/>
<polygon fill="black" stroke="black" points="142.92,-29.87 132.35,-29.06 140.11,-36.28 142.92,-29.87"/>
</g>
<!-- bar -->
<g id="node14" class="node">
<title>bar</title>
<ellipse fill="none" stroke="black" cx="342.4" cy="-18" rx="27" ry="18"/>
<text text-anchor="middle" x="342.4" y="-14.3" font-family="Times,serif" font-size="14.00">bar</text>
</g>
<!-- geometry&#45;&gt;bar -->
<g id="edge15" class="edge">
<title>geometry&#45;&gt;bar</title>
<path fill="none" stroke="black" d="M287.51,-73.89C297.25,-64.14 309.81,-51.59 320.45,-40.94"/>
<polygon fill="black" stroke="black" points="323.2,-43.14 327.8,-33.6 318.25,-38.19 323.2,-43.14"/>
</g>
<!-- variables -->
<g id="node7" class="node">
<title>variables</title>
<ellipse fill="none" stroke="black" cx="406.4" cy="-324" rx="42.49" ry="18"/>
<text text-anchor="middle" x="406.4" y="-320.3" font-family="Times,serif" font-size="14.00">variables</text>
</g>
<!-- has&#45;&gt;variables -->
<g id="edge6" class="edge">
<title>has&#45;&gt;variables</title>
<path fill="none" stroke="black" d="M277.03,-385.83C301.21,-374.46 340.76,-355.86 369.78,-342.22"/>
<polygon fill="black" stroke="black" points="371.62,-345.22 379.18,-337.8 368.64,-338.88 371.62,-345.22"/>
</g>
<!-- observations -->
<g id="node8" class="node">
<title>observations</title>
<ellipse fill="none" stroke="black" cx="243.4" cy="-178" rx="55.49" ry="18"/>
<text text-anchor="middle" x="243.4" y="-174.3" font-family="Times,serif" font-size="14.00">observations</text>
</g>
<!-- has&#45;&gt;observations -->
<g id="edge7" class="edge">
<title>has&#45;&gt;observations</title>
<path fill="none" stroke="black" d="M254.45,-378.97C252.38,-341.51 247.41,-251.68 244.9,-206.26"/>
<polygon fill="black" stroke="black" points="248.4,-206.04 244.35,-196.25 241.41,-206.43 248.4,-206.04"/>
</g>
<!-- variables&#45;&gt;combine -->
<g id="edge8" class="edge">
<title>variables&#45;&gt;combine</title>
<path fill="none" stroke="black" d="M401.55,-305.81C399.27,-297.7 396.49,-287.84 393.94,-278.78"/>
<polygon fill="black" stroke="black" points="397.27,-277.71 391.19,-269.03 390.54,-279.6 397.27,-277.71"/>
</g>
<!-- aggregate -->
<g id="node15" class="node">
<title>aggregate</title>
<ellipse fill="none" stroke="black" stroke-dasharray="5,2" cx="495.4" cy="-91" rx="44.69" ry="18"/>
<text text-anchor="middle" x="495.4" y="-87.3" font-family="Times,serif" font-size="14.00">aggregate</text>
</g>
<!-- observations&#45;&gt;aggregate -->
<g id="edge16" class="edge">
<title>observations&#45;&gt;aggregate</title>
<path fill="none" stroke="black" d="M262.13,-160.81C276.34,-149.46 296.86,-134.94 317.4,-127 369.33,-106.9 387.11,-121.4 441.4,-109 445.06,-108.16 448.84,-107.2 452.61,-106.16"/>
<polygon fill="black" stroke="black" points="453.88,-109.43 462.5,-103.28 451.92,-102.71 453.88,-109.43"/>
</g>
<!-- individual -->
<g id="node16" class="node">
<title>individual</title>
<ellipse fill="none" stroke="black" stroke-dasharray="5,2" cx="163.4" cy="-91" rx="46.29" ry="18"/>
<text text-anchor="middle" x="163.4" y="-87.3" font-family="Times,serif" font-size="14.00">individual</text>
</g>
<!-- observations&#45;&gt;individual -->
<g id="edge19" class="edge">
<title>observations&#45;&gt;individual</title>
<path fill="none" stroke="black" d="M227.97,-160.61C215.94,-147.83 199.07,-129.9 185.59,-115.58"/>
<polygon fill="black" stroke="black" points="187.9,-112.93 178.5,-108.05 182.81,-117.73 187.9,-112.93"/>
</g>
<!-- visual properties -->
<g id="node10" class="node">
<title>visual properties</title>
<ellipse fill="none" stroke="black" cx="386.4" cy="-178" rx="69.59" ry="18"/>
<text text-anchor="middle" x="386.4" y="-174.3" font-family="Times,serif" font-size="14.00">visual properties</text>
</g>
<!-- combine&#45;&gt;visual properties -->
<g id="edge10" class="edge">
<title>combine&#45;&gt;visual properties</title>
<path fill="none" stroke="black" d="M386.4,-232.81C386.4,-224.79 386.4,-215.05 386.4,-206.07"/>
<polygon fill="black" stroke="black" points="389.9,-206.03 386.4,-196.03 382.9,-206.03 389.9,-206.03"/>
</g>
<!-- visual properties&#45;&gt;geometry -->
<g id="edge11" class="edge">
<title>visual properties&#45;&gt;geometry</title>
<path fill="none" stroke="black" d="M364.49,-160.81C346.25,-147.33 320.11,-128.01 300.18,-113.27"/>
<polygon fill="black" stroke="black" points="302.18,-110.4 292.05,-107.27 298.02,-116.03 302.18,-110.4"/>
<text text-anchor="middle" x="341.4" y="-130.8" font-family="Times,serif" font-size="14.00">of</text>
</g>
<!-- aggregate&#45;&gt;box -->
<g id="edge17" class="edge">
<title>aggregate&#45;&gt;box</title>
<path fill="none" stroke="black" d="M481.07,-73.64C475.2,-67.27 468.2,-60.06 461.4,-54 455.09,-48.39 447.93,-42.74 441.14,-37.66"/>
<polygon fill="black" stroke="black" points="442.96,-34.66 432.82,-31.59 438.84,-40.32 442.96,-34.66"/>
</g>
<!-- aggregate&#45;&gt;bar -->
<g id="edge18" class="edge">
<title>aggregate&#45;&gt;bar</title>
<path fill="none" stroke="black" d="M466.99,-76.98C443.28,-66.08 408.6,-50.1 378.4,-36 376.61,-35.17 374.78,-34.31 372.93,-33.44"/>
<polygon fill="black" stroke="black" points="374.24,-30.19 363.7,-29.1 371.26,-36.52 374.24,-30.19"/>
</g>
<!-- individual&#45;&gt;line -->
<g id="edge21" class="edge">
<title>individual&#45;&gt;line</title>
<path fill="none" stroke="black" d="M168.48,-72.81C170.88,-64.7 173.8,-54.84 176.48,-45.78"/>
<polygon fill="black" stroke="black" points="179.88,-46.61 179.36,-36.03 173.17,-44.63 179.88,-46.61"/>
</g>
<!-- individual&#45;&gt;point -->
<g id="edge20" class="edge">
<title>individual&#45;&gt;point</title>
<path fill="none" stroke="black" d="M142.43,-74.92C135.67,-69.27 128.59,-62.4 123.4,-55 121.33,-52.06 119.52,-48.76 117.94,-45.4"/>
<polygon fill="black" stroke="black" points="121.11,-43.91 114.11,-35.96 114.63,-46.55 121.11,-43.91"/>
</g>
<!-- can be -->
<g id="node18" class="node">
<title>can be</title>
<ellipse fill="none" stroke="black" stroke-dasharray="5,2" cx="98.4" cy="-178" rx="33.6" ry="18"/>
<text text-anchor="middle" x="98.4" y="-174.3" font-family="Times,serif" font-size="14.00">can be</text>
</g>
<!-- axes&#45;&gt;can be -->
<g id="edge23" class="edge">
<title>axes&#45;&gt;can be</title>
<path fill="none" stroke="black" d="M101.48,-432.94C100.6,-415.03 99.4,-386.05 99.4,-361 99.4,-361 99.4,-361 99.4,-250 99.4,-235.65 99.19,-219.67 98.96,-206.51"/>
<polygon fill="black" stroke="black" points="102.46,-206.15 98.77,-196.22 95.46,-206.28 102.46,-206.15"/>
</g>
<!-- categorical -->
<g id="node19" class="node">
<title>categorical</title>
<ellipse fill="none" stroke="black" cx="383.4" cy="-91" rx="49.29" ry="18"/>
<text text-anchor="middle" x="383.4" y="-87.3" font-family="Times,serif" font-size="14.00">categorical</text>
</g>
<!-- can be&#45;&gt;categorical -->
<g id="edge24" class="edge">
<title>can be&#45;&gt;categorical</title>
<path fill="none" stroke="black" d="M127.29,-168.38C176.52,-153.7 277.08,-123.71 336.49,-105.99"/>
<polygon fill="black" stroke="black" points="337.79,-109.25 346.37,-103.04 335.79,-102.55 337.79,-109.25"/>
</g>
<!-- continuous -->
<g id="node20" class="node">
<title>continuous</title>
<ellipse fill="none" stroke="black" cx="49.4" cy="-91" rx="49.29" ry="18"/>
<text text-anchor="middle" x="49.4" y="-87.3" font-family="Times,serif" font-size="14.00">continuous</text>
</g>
<!-- can be&#45;&gt;continuous -->
<g id="edge25" class="edge">
<title>can be&#45;&gt;continuous</title>
<path fill="none" stroke="black" d="M88.95,-160.61C81.92,-148.42 72.2,-131.56 64.15,-117.6"/>
<polygon fill="black" stroke="black" points="67.18,-115.84 59.15,-108.92 61.11,-119.33 67.18,-115.84"/>
</g>
<!-- categorical&#45;&gt;box -->
<g id="edge27" class="edge">
<title>categorical&#45;&gt;box</title>
<path fill="none" stroke="black" d="M390.74,-73.17C394.41,-64.77 398.93,-54.42 403.03,-45.03"/>
<polygon fill="black" stroke="black" points="406.31,-46.27 407.1,-35.71 399.89,-43.47 406.31,-46.27"/>
</g>
<!-- categorical&#45;&gt;bar -->
<g id="edge26" class="edge">
<title>categorical&#45;&gt;bar</title>
<path fill="none" stroke="black" d="M373.68,-73.17C368.65,-64.47 362.42,-53.68 356.84,-44.02"/>
<polygon fill="black" stroke="black" points="359.79,-42.13 351.76,-35.22 353.73,-45.63 359.79,-42.13"/>
</g>
<!-- continuous&#45;&gt;line -->
<g id="edge28" class="edge">
<title>continuous&#45;&gt;line</title>
<path fill="none" stroke="black" d="M76.39,-75.8C98.98,-63.92 131.17,-46.99 154.53,-34.71"/>
<polygon fill="black" stroke="black" points="156.41,-37.67 163.63,-29.92 153.15,-31.48 156.41,-37.67"/>
</g>
<!-- continuous&#45;&gt;point -->
<g id="edge29" class="edge">
<title>continuous&#45;&gt;point</title>
<path fill="none" stroke="black" d="M63.31,-73.53C71.18,-64.22 81.14,-52.43 89.79,-42.2"/>
<polygon fill="black" stroke="black" points="92.6,-44.3 96.38,-34.41 87.25,-39.78 92.6,-44.3"/>
</g>
</g>
</svg>
